<?xml version="1.0" encoding="UTF-8"?>
<svg version="1.1" xmlns="http://www.w3.org/2000/svg" width="408" height="612">
<path d="M0 0 C43.56 0 87.12 0 132 0 C132 26.07 132 52.14 132 79 C144.87 79 157.74 79 171 79 C171 65.8 171 52.6 171 39 C184.2 39 197.4 39 211 39 C210.96039654 26.53916305 210.96039654 26.53916305 210.90991211 14.07836914 C210.90699295 12.52229887 210.90444439 10.96622784 210.90234375 9.41015625 C210.89722778 8.59478394 210.89211182 7.77941162 210.88684082 6.93933105 C210.8865306 4.95919477 210.93761904 2.97915346 211 1 C212 0 212 0 213.93466282 -0.12304783 C214.78916492 -0.12212604 215.64366701 -0.12120424 216.52406311 -0.12025452 C217.50147964 -0.12162918 218.47889618 -0.12300385 219.4859314 -0.12442017 C220.56702179 -0.12082489 221.64811218 -0.11722961 222.76196289 -0.11352539 C224.45930321 -0.11374443 224.45930321 -0.11374443 226.19093323 -0.1139679 C229.95152671 -0.11326819 233.71207137 -0.10547311 237.47265625 -0.09765625 C240.07197543 -0.09579227 242.67129497 -0.09436828 245.27061462 -0.09336853 C251.42588577 -0.08993341 257.5811366 -0.08204256 263.73640007 -0.07201904 C270.74233346 -0.06085694 277.74826767 -0.05534721 284.75420773 -0.05032361 C299.16948133 -0.03985992 313.58474004 -0.02226108 328 0 C329.23164096 2.46328193 329.12581537 4.07223734 329.12698364 6.82740784 C329.12980347 7.84682465 329.13262329 8.86624146 329.13552856 9.91654968 C329.13249222 11.60056633 329.13249222 11.60056633 329.12939453 13.31860352 C329.13202301 15.08690521 329.13202301 15.08690521 329.13470459 16.89093018 C329.1383586 20.12839271 329.13749245 23.36581455 329.1343255 26.60327649 C329.13179878 29.98608313 329.13414026 33.36888699 329.13571167 36.75169373 C329.1375322 42.43204234 329.13512984 48.11237796 329.13037109 53.79272461 C329.12492608 60.36835602 329.12669333 66.94395644 329.1321975 73.5195871 C329.13672882 79.15781564 329.13737916 84.79603483 329.13475883 90.4342646 C329.1331965 93.80507951 329.13300115 97.17587982 329.13629532 100.5466938 C329.13881997 104.30141455 329.13498401 108.0560748 329.12939453 111.81079102 C329.13141876 112.93549301 329.13344299 114.06019501 329.13552856 115.21897888 C329.13129883 116.74387436 329.13129883 116.74387436 329.12698364 118.29957581 C329.12660662 119.18835198 329.12622959 120.07712816 329.12584114 120.99283695 C329 123 329 123 328 124 C325.1883662 124.08861992 322.40141745 124.11522355 319.58984375 124.09765625 C318.74780899 124.0962413 317.90577423 124.09482635 317.03822327 124.09336853 C314.33794665 124.08775263 311.63775172 124.07519748 308.9375 124.0625 C307.11132932 124.05748705 305.28515734 124.05292379 303.45898438 124.04882812 C298.97262458 124.03777804 294.48632616 124.02050279 290 124 C290.00785522 125.8097229 290.00785522 125.8097229 290.01586914 127.65600586 C290.03391611 132.11563378 290.04543089 136.57525846 290.05493164 141.03491211 C290.05997256 142.96818585 290.06680519 144.90145576 290.07543945 146.8347168 C290.08751565 149.60726872 290.09323057 152.37977041 290.09765625 155.15234375 C290.10281754 156.02213364 290.10797882 156.89192352 290.11329651 157.78807068 C290.11349185 159.85905814 290.06208168 161.92994324 290 164 C289 165 289 165 285.21459961 165.11352539 C283.52717271 165.11336622 281.83974095 165.10766917 280.15234375 165.09765625 C278.82270348 165.09553383 278.82270348 165.09553383 277.46620178 165.09336853 C274.62326746 165.08775215 271.78041069 165.07519691 268.9375 165.0625 C267.01497509 165.05748711 265.09244896 165.05292384 263.16992188 165.04882812 C258.44656036 165.03862648 253.72336742 165.01905437 249 165 C249 177.87 249 190.74 249 204 C251.87589844 203.98839844 254.75179687 203.97679687 257.71484375 203.96484375 C260.48819875 203.95705375 263.26155254 203.95097667 266.03491211 203.94506836 C267.96818585 203.94002744 269.90145576 203.93319481 271.8347168 203.92456055 C274.60726872 203.91248435 277.37977041 203.90676943 280.15234375 203.90234375 C281.45702858 203.89460182 281.45702858 203.89460182 282.78807068 203.88670349 C284.85905814 203.88650815 286.92994324 203.93791832 289 204 C290 205 290 205 290.11352539 208.78540039 C290.11336622 210.47282729 290.10766917 212.16025905 290.09765625 213.84765625 C290.09553383 215.17729652 290.09553383 215.17729652 290.09336853 216.53379822 C290.08775215 219.37673254 290.07519691 222.21958931 290.0625 225.0625 C290.05748711 226.98502491 290.05292384 228.90755104 290.04882812 230.83007812 C290.03777741 235.55341549 290.02050183 240.27669458 290 245 C291.145896 244.99476318 292.29179199 244.98952637 293.47241211 244.98413086 C297.70840682 244.96608283 301.94439812 244.95456872 306.18041992 244.94506836 C308.01668875 244.94002769 309.85295354 244.93319523 311.68920898 244.92456055 C314.32276401 244.91248328 316.95626616 244.90676919 319.58984375 244.90234375 C320.41588608 244.89718246 321.24192841 244.89202118 322.09300232 244.88670349 C324.06236368 244.88650795 326.03161614 244.93795848 328 245 C329.61887857 246.61887857 329.12601833 248.38669838 329.12698364 250.62449646 C329.12980347 251.62426514 329.13262329 252.62403381 329.13552856 253.65409851 C329.13249222 255.31309929 329.13249222 255.31309929 329.12939453 257.00561523 C329.13202301 258.74202774 329.13202301 258.74202774 329.13470459 260.51351929 C329.13912631 264.36189244 329.13618379 268.21022008 329.1328125 272.05859375 C329.13348549 274.72038328 329.13445379 277.3821714 329.13571167 280.04396057 C329.13753334 285.63193256 329.13512739 291.21989134 329.13037109 296.80786133 C329.12493113 303.27382098 329.1266892 309.73974909 329.1321975 316.20570797 C329.13673187 321.74966529 329.1373775 327.2936131 329.13475883 332.83757168 C329.1331975 336.15198407 329.13338924 339.46637833 329.13629532 342.78079033 C329.13882332 346.47554559 329.13497897 350.17023956 329.12939453 353.86499023 C329.13141876 354.96896652 329.13344299 356.07294281 329.13552856 357.21037292 C329.13129883 358.71425568 329.13129883 358.71425568 329.12698364 360.2485199 C329.12660662 361.12292441 329.12622959 361.99732893 329.12584114 362.89823055 C329 365 329 365 328 367 C312.89275309 367.02332969 297.78550757 367.04097952 282.6782465 367.05181217 C275.66415366 367.05697498 268.650072 367.06401739 261.63598633 367.07543945 C254.87331932 367.08644688 248.11066636 367.09227619 241.34799004 367.09487724 C238.7614772 367.09673203 236.17496503 367.10035367 233.58845711 367.10573006 C229.97961145 367.11293651 226.37081453 367.11399111 222.76196289 367.11352539 C221.6808725 367.11712067 220.5997821 367.12071594 219.4859314 367.12442017 C218.01980659 367.12235817 218.01980659 367.12235817 216.52406311 367.12025452 C215.66956101 367.12117631 214.81505892 367.1220981 213.93466282 367.12304783 C212 367 212 367 211 366 C210.91131701 363.04294679 210.88479704 360.10934944 210.90234375 357.15234375 C210.90446617 355.82270348 210.90446617 355.82270348 210.90663147 354.46620178 C210.91224785 351.62326746 210.92480309 348.78041069 210.9375 345.9375 C210.94251289 344.01497509 210.94707616 342.09244896 210.95117188 340.16992188 C210.96222259 335.44658451 210.97949817 330.72330542 211 326 C209.89487061 326.01047363 208.78974121 326.02094727 207.65112305 326.03173828 C203.55301144 326.06792407 199.45491397 326.09089529 195.35668945 326.10986328 C193.58257676 326.11992411 191.80848065 326.13357422 190.03442383 326.15087891 C187.48514716 326.17512378 184.93608963 326.18648218 182.38671875 326.1953125 C181.59287277 326.20563507 180.79902679 326.21595764 179.98112488 326.22659302 C176.11776957 326.2273811 174.29160554 326.19440369 171 324 C170.73357652 321.09359676 170.65201033 318.39688769 170.70703125 315.4921875 C170.71005249 314.74718994 170.71307373 314.00219238 170.71618652 313.23461914 C170.73189929 310.44793879 170.77378336 307.66145569 170.8125 304.875 C170.874375 298.64625 170.93625 292.4175 171 286 C158.13 286 145.26 286 132 286 C132 312.4 132 338.8 132 366 C128.99609564 367.00130145 127.01394108 367.12570116 123.87597656 367.12698364 C122.28601868 367.13121338 122.28601868 367.13121338 120.66394043 367.13552856 C118.91989929 367.13249222 118.91989929 367.13249222 117.140625 367.12939453 C115.91605591 367.13114685 114.69148682 367.13289917 113.42980957 367.13470459 C110.07036716 367.13835536 106.71098622 367.13749438 103.35154724 367.1343255 C99.83755408 367.13179561 96.32356357 367.1341412 92.80957031 367.13571167 C86.90819832 367.13753152 81.00683884 367.13513188 75.10546875 367.13037109 C68.28048831 367.12492883 61.45553773 367.12669161 54.63055801 367.1321975 C48.77317168 367.13673387 42.91579435 367.1373766 37.05840683 367.13475883 C33.55899313 367.13319895 30.05959347 367.13299441 26.56018066 367.13629532 C22.65990027 367.1397173 18.75965341 367.13497571 14.859375 367.12939453 C13.69668091 367.13141876 12.53398682 367.13344299 11.33605957 367.13552856 C10.27608765 367.13270874 9.21611572 367.12988892 8.12402344 367.12698364 C7.20151794 367.12660662 6.27901245 367.12622959 5.32855225 367.12584114 C3 367 3 367 0 366 C-0.93921841 358.40134512 -1.13511019 350.91647088 -1.10534668 343.26576233 C-1.10454259 342.02923491 -1.1037385 340.79270749 -1.10291004 339.51870954 C-1.09961757 336.1385846 -1.09178827 332.75852948 -1.08182585 329.37842159 C-1.07219872 325.75473583 -1.0683302 322.13104288 -1.063591 318.50734806 C-1.05129898 310.09105058 -1.02948211 301.67479004 -1.00613165 293.25851709 C-0.99628404 289.63127358 -0.9875309 286.00402749 -0.97866821 282.37678146 C-0.93364612 264.2341163 -0.87268078 246.09152073 -0.80645761 227.94892197 C-0.77754618 220.01706344 -0.75000538 212.08520027 -0.72249681 204.15333677 C-0.67346436 190.02482875 -0.62344889 175.89632441 -0.57275391 161.76782227 C-0.52370662 148.09790228 -0.47516309 134.42798064 -0.42724609 120.75805664 C-0.42422859 119.89738309 -0.42121109 119.03670954 -0.41810215 118.14995497 C-0.39448367 111.41225457 -0.37089308 104.67455406 -0.34731126 97.93685353 C-0.23304516 65.29123024 -0.11636143 32.64561602 0 0 Z " fill="#A0A0A0" transform="translate(40,88)"/>
<path d="M0 0 C43.56 0 87.12 0 132 0 C132.04125 12.82875 132.0825 25.6575 132.125 38.875 C132.14320801 42.92894043 132.16141602 46.98288086 132.18017578 51.15966797 C132.18920898 56.10180664 132.18920898 56.10180664 132.19088745 58.41384888 C132.19396298 60.03210549 132.20100605 61.65035747 132.21115112 63.26858521 C132.2257348 65.71673574 132.22781389 68.16460568 132.22705078 70.61279297 C132.234247 71.33632902 132.24144321 72.05986507 132.2488575 72.80532646 C132.22805267 77.77194733 132.22805267 77.77194733 130 80 C130 54.59 130 29.18 130 3 C87.76 3 45.52 3 2 3 C2 94.74 2 186.48 2 281 C1.67 281 1.34 281 1 281 C-0.16496175 225.28954478 -0.12409156 169.58272786 -0.07202661 113.8624438 C-0.05844412 99.05512654 -0.0532985 84.24780602 -0.04751682 69.44048405 C-0.03826988 46.29364809 -0.01830432 23.14683468 0 0 Z " fill="#999999" transform="translate(40,88)"/>
<path d="M0 0 C37.95 0 75.9 0 115 0 C116.23317158 2.46634316 116.12311024 4.07551173 116.12025452 6.83413696 C116.12231651 8.36542992 116.12231651 8.36542992 116.12442017 9.92765808 C116.11902725 11.6140313 116.11902725 11.6140313 116.11352539 13.33447266 C116.11367142 14.51494675 116.11381744 15.69542084 116.1139679 16.91166687 C116.11338959 20.15319775 116.10836583 23.39468575 116.10139394 26.63620806 C116.09515306 30.02214911 116.09455602 33.40809095 116.09336853 36.79403687 C116.09025739 43.2078101 116.08204691 49.62156634 116.07201904 56.03533208 C116.06085119 63.33632547 116.05534576 70.63731965 116.05032361 77.93831944 C116.03986412 92.95888911 116.02226886 107.97944286 116 123 C115.67 123 115.34 123 115 123 C114.9845388 122.06397446 114.9845388 122.06397446 114.96876526 121.10903931 C114.85925015 114.52085881 114.74480063 107.93277624 114.62768555 101.34472656 C114.58479363 98.89715658 114.54309424 96.44956536 114.50268555 94.00195312 C114.44385457 90.45175817 114.38050711 86.90166579 114.31640625 83.3515625 C114.29969376 82.28515533 114.28298126 81.21874817 114.26576233 80.12002563 C114.08873428 70.71407539 113.52310688 61.41592389 113 52 C113 35.83 113 19.66 113 3 C75.71 3 38.42 3 0 3 C0 2.01 0 1.02 0 0 Z " fill="#AFAFAF" transform="translate(253,88)"/>
<path d="M0 0 C0.33 0 0.66 0 1 0 C1.02333859 15.48112783 1.04098391 30.96225435 1.05181217 46.44339561 C1.05697308 53.63121503 1.06401189 60.81902353 1.07543945 68.00683594 C1.08539253 74.27019115 1.09185492 80.53353845 1.09408849 86.79690135 C1.09539454 90.11468721 1.09899419 93.43244512 1.10573006 96.75022507 C1.11294526 100.44987096 1.11399073 104.14946935 1.11352539 107.84912109 C1.11712067 108.95466843 1.12071594 110.06021576 1.12442017 111.19926453 C1.1230455 112.20329819 1.12167084 113.20733185 1.12025452 114.24179077 C1.12117631 115.11749411 1.1220981 115.99319744 1.12304783 116.89543724 C1 119 1 119 0 121 C-37.95 121 -75.9 121 -115 121 C-114.34 120.01 -113.68 119.02 -113 118 C-111.02037621 117.63085651 -111.02037621 117.63085651 -108.54550171 117.63923645 C-107.14042107 117.63305046 -107.14042107 117.63305046 -105.70695496 117.6267395 C-104.67621353 117.63752533 -103.64547211 117.64831116 -102.58349609 117.65942383 C-101.50055771 117.65898575 -100.41761932 117.65854767 -99.30186462 117.65809631 C-95.70887456 117.66019264 -92.11634643 117.68356387 -88.5234375 117.70703125 C-86.03765111 117.71262419 -83.55186143 117.71689571 -81.06607056 117.71989441 C-75.18346433 117.73019319 -69.30102967 117.75385676 -63.41849387 117.78394288 C-56.06548388 117.82073512 -48.71245343 117.83687113 -41.359375 117.85351562 C-28.23949851 117.88572215 -15.11975979 117.93637357 -2 118 C-2.01160156 116.69804687 -2.02320313 115.39609375 -2.03515625 114.0546875 C-2.04453973 112.32812644 -2.05363934 110.60156382 -2.0625 108.875 C-2.07087891 108.0190625 -2.07925781 107.163125 -2.08789062 106.28125 C-2.10548648 101.70632713 -1.7767348 97.51602134 -1 93 C-0.83421087 89.92808778 -0.81555302 86.85763816 -0.79467773 83.78173828 C-0.78477814 82.87378006 -0.77487854 81.96582184 -0.76467896 81.03034973 C-0.73321361 78.04369674 -0.70836594 75.05702787 -0.68359375 72.0703125 C-0.66301129 69.99380084 -0.64201448 67.91729325 -0.62062073 65.84078979 C-0.5655335 60.386142 -0.51606553 54.93145723 -0.46777344 49.47674561 C-0.41746074 43.90633876 -0.36182574 38.33598533 -0.30664062 32.765625 C-0.19922241 21.84379569 -0.09774139 10.9219199 0 0 Z " fill="#B2B2B2" transform="translate(368,334)"/>
<path d="M0 0 C2 2 2 2 2.22705078 4.52197266 C2.21657715 5.5588623 2.20610352 6.59575195 2.1953125 7.6640625 C2.18886719 8.78554688 2.18242187 9.90703125 2.17578125 11.0625 C2.15902344 12.238125 2.14226562 13.41375 2.125 14.625 C2.11597656 15.80835938 2.10695312 16.99171875 2.09765625 18.2109375 C2.07402812 21.14082523 2.04108514 24.0703134 2 27 C-1.07837794 28.02612598 -3.16574296 28.12090219 -6.3894043 28.11352539 C-7.49031906 28.11344986 -8.59123383 28.11337433 -9.72550964 28.11329651 C-10.91308365 28.10813522 -12.10065765 28.10297394 -13.32421875 28.09765625 C-14.54075638 28.0962413 -15.75729401 28.09482635 -17.01069641 28.09336853 C-20.9029891 28.08776312 -24.79522464 28.07520967 -28.6875 28.0625 C-31.32356688 28.0574857 -33.95963466 28.05292267 -36.59570312 28.04882812 C-43.06382164 28.03779193 -49.53190674 28.0210485 -56 28 C-52.86667225 25.23100804 -50.92788455 24.62916589 -46.77246094 24.65942383 C-45.73168396 24.65965042 -44.69090698 24.65987701 -43.61859131 24.66011047 C-42.50179993 24.67559433 -41.38500854 24.69107819 -40.234375 24.70703125 C-38.51157318 24.71339851 -38.51157318 24.71339851 -36.75396729 24.71989441 C-33.0857397 24.73668667 -29.41806153 24.77434102 -25.75 24.8125 C-23.26302877 24.82754608 -20.77604892 24.84123461 -18.2890625 24.85351562 C-12.19232638 24.88404 -6.09677817 24.94276321 0 25 C0 16.75 0 8.5 0 0 Z " fill="#9B9B9B" transform="translate(170,427)"/>
<path d="M0 0 C1.98 0 3.96 0 6 0 C6.02317746 12.15244963 6.04094268 24.30489399 6.05181217 36.45736122 C6.05702916 42.10032558 6.06410535 47.74327481 6.07543945 53.38623047 C6.08631036 58.83269779 6.09228577 64.27915056 6.09487724 69.7256279 C6.0967239 71.8028219 6.10032994 73.88001511 6.10573006 75.95720291 C6.11299622 78.8681332 6.11398858 81.77900349 6.11352539 84.68994141 C6.11712067 85.54733917 6.12071594 86.40473694 6.12442017 87.28811646 C6.11693289 91.64093899 5.87375897 95.71346071 5 100 C4.67 100 4.34 100 4 100 C4 67.66 4 35.32 4 2 C2.35 2 0.7 2 -1 2 C-0.67 1.34 -0.34 0.68 0 0 Z " fill="#989898" transform="translate(362,333)"/>
<path d="M0 0 C0.66 0 1.32 0 2 0 C2 11.88 2 23.76 2 36 C15.2 36 28.4 36 42 36 C42 36.99 42 37.98 42 39 C28.8 39 15.6 39 2 39 C2 38.34 2 37.68 2 37 C1.34 37 0.68 37 0 37 C0 24.79 0 12.58 0 0 Z " fill="#9A9A9A" transform="translate(287,256)"/>
<path d="M0 0 C4.76884567 -0.07425143 9.5373536 -0.12864936 14.30664062 -0.16479492 C15.92844506 -0.17986565 17.55020884 -0.20032593 19.171875 -0.22631836 C21.50531046 -0.26277829 23.83820631 -0.27974314 26.171875 -0.29296875 C26.89493835 -0.30845261 27.61800171 -0.32393646 28.36297607 -0.33988953 C33.02685032 -0.34144272 34.05033143 0.03774857 38 3 C20.18 3 2.36 3 -16 3 C-16 2.67 -16 2.34 -16 2 C-10.72 2 -5.44 2 0 2 C0 1.34 0 0.68 0 0 Z " fill="#949494" transform="translate(67,452)"/>
<path d="M0 0 C0.33 0 0.66 0 1 0 C1.33 14.52 1.66 29.04 2 44 C0.515 44.495 0.515 44.495 -1 45 C-1.9988373 37.23573536 -2.18625851 29.52588122 -2.18530273 21.70288086 C-2.18751531 19.6734598 -2.20581705 17.64456171 -2.22460938 15.61523438 C-2.22654297 14.32294922 -2.22847656 13.03066406 -2.23046875 11.69921875 C-2.23457764 10.53221436 -2.23868652 9.36520996 -2.24291992 8.1628418 C-2.0022111 5.02878876 -1.33727077 2.82393691 0 0 Z " fill="#ABABAB" transform="translate(41,409)"/>
<path d="M0 0 C1.60488281 0.01450195 1.60488281 0.01450195 3.2421875 0.02929688 C4.35335937 0.05443359 5.46453125 0.07957031 6.609375 0.10546875 C8.29933594 0.12577148 8.29933594 0.12577148 10.0234375 0.14648438 C12.80256764 0.1818123 15.58072863 0.23114355 18.359375 0.29296875 C18.359375 0.62296875 18.359375 0.95296875 18.359375 1.29296875 C21.659375 1.62296875 24.959375 1.95296875 28.359375 2.29296875 C28.359375 2.62296875 28.359375 2.95296875 28.359375 3.29296875 C15.819375 3.29296875 3.279375 3.29296875 -9.640625 3.29296875 C-5.4604735 0.15785513 -4.86081347 -0.07756617 0 0 Z " fill="#919191" transform="translate(123.640625,451.70703125)"/>
<path d="M0 0 C3.29159316 -0.05790353 6.58305603 -0.09356261 9.875 -0.125 C10.81214844 -0.14175781 11.74929687 -0.15851563 12.71484375 -0.17578125 C13.61074219 -0.18222656 14.50664062 -0.18867188 15.4296875 -0.1953125 C16.25710449 -0.20578613 17.08452148 -0.21625977 17.93701172 -0.22705078 C20 0 20 0 22 2 C15.71106343 5.14446828 5.7589912 2.71958842 -1 2 C-0.67 1.34 -0.34 0.68 0 0 Z " fill="#A8A8A8" transform="translate(175,371)"/>
<path d="M0 0 C5.61 0 11.22 0 17 0 C16.67 0.66 16.34 1.32 16 2 C13.28553021 2.31241455 10.66090639 2.51336592 7.9375 2.625 C7.17888672 2.66367187 6.42027344 2.70234375 5.63867188 2.7421875 C3.75952805 2.83673562 1.87979664 2.91946756 0 3 C0 2.01 0 1.02 0 0 Z " fill="#959595" transform="translate(195,371)"/>
<path d="M0 0 C4.93928888 -0.3367697 5.78492722 -0.16130459 10 3 C6.7 3 3.4 3 0 3 C0 2.01 0 1.02 0 0 Z " fill="#8E8E8E" transform="translate(95,452)"/>
</svg>
