<?xml version="1.0" encoding="UTF-8"?>
<svg version="1.1" xmlns="http://www.w3.org/2000/svg" width="512" height="512">
<path d="M0 0 C0.70253906 0.04125 1.40507812 0.0825 2.12890625 0.125 C5.82196799 1.52473914 8.22152796 3.74487039 10.4375 7 C11.41238008 9.9380157 11.43528564 12.67070412 11.375 15.75 C11.36243164 16.69004883 11.34986328 17.63009766 11.33691406 18.59863281 C10.70064977 33.16051143 6.78722221 47.43393383 3.5526886 61.58612061 C0.85875213 73.42876728 -1.58465216 85.32304565 -4.0333252 97.21838379 C-4.78919453 100.88689017 -5.54980517 104.55438388 -6.31152344 108.22167969 C-8.67066711 119.61085951 -10.95627982 131.00751918 -13.109375 142.4375 C-14.53751128 149.99648075 -16.09481583 157.48932504 -17.94140625 164.95703125 C-20.18843944 174.07063458 -22.07741133 183.24396096 -23.90234375 192.44921875 C-24.04817524 193.18422733 -24.19400673 193.91923592 -24.34425735 194.67651749 C-25.55364265 200.77949408 -26.75309697 206.8844154 -27.9520874 212.98944092 C-28.99337541 218.28945455 -30.03847558 223.58869496 -31.08984375 228.88671875 C-31.2356551 229.62179594 -31.38146645 230.35687313 -31.53169632 231.11422539 C-33.88754194 242.95570655 -36.48572234 254.72669337 -39.27856445 266.47363281 C-40.57959137 271.97970228 -41.71864018 277.51197212 -42.8125 283.0625 C-43.02624268 284.14305664 -43.23998535 285.22361328 -43.46020508 286.33691406 C-43.73707153 287.75568848 -43.73707153 287.75568848 -44.01953125 289.203125 C-46.12846258 299.91655487 -48.31754177 310.61385235 -50.5 321.3125 C-50.7215274 322.39874664 -50.94305481 323.48499329 -51.17129517 324.60415649 C-53.77083117 337.34172895 -56.39703747 350.07106028 -59.15722656 362.77490234 C-60.9036176 370.84497774 -62.59133079 378.92640364 -64.265625 387.01171875 C-64.50918228 388.18777679 -64.75273956 389.36383484 -65.00367737 390.57553101 C-66.23595081 396.52934071 -67.46571966 402.48365948 -68.69311523 408.43847656 C-75.86310893 443.1767805 -75.86310893 443.1767805 -81.9375 447.8125 C-87.80438828 450.46656851 -92.56384824 450.14441528 -98.5625 448 C-101.07875803 446.59394634 -103.29999858 444.90509969 -105.5625 443.125 C-106.19986084 442.6410376 -106.83722168 442.1570752 -107.49389648 441.65844727 C-108.84085377 440.63472031 -110.18382006 439.60572313 -111.52294922 438.57177734 C-114.86635926 435.99518244 -118.24733239 433.46890834 -121.625 430.9375 C-122.2948291 430.43355713 -122.9646582 429.92961426 -123.65478516 429.41040039 C-129.59265641 424.95087618 -135.62679685 420.6363675 -141.68164062 416.33789062 C-152.59692102 408.57364652 -163.38843125 400.65822007 -174.08691406 392.59814453 C-181.81266255 386.78808164 -189.63107589 381.11367446 -197.49023438 375.48583984 C-199.50205867 374.04333718 -201.50937722 372.59477619 -203.515625 371.14453125 C-216.02106628 361.22738934 -216.02106628 361.22738934 -230.984375 357.54296875 C-240.00278528 359.14168694 -247.67571681 367.43505161 -254.4140625 373.28515625 C-257.99119183 376.39034865 -261.68618477 379.33676553 -265.40234375 382.2734375 C-267.32611192 383.81106052 -269.19802847 385.39161251 -271.0625 387 C-273.5625 389 -273.5625 389 -275.5625 389 C-275.5625 389.66 -275.5625 390.32 -275.5625 391 C-276.96875 392.26953125 -276.96875 392.26953125 -279.0625 393.8125 C-284.36229505 397.81044365 -289.49478016 401.992831 -294.625 406.2043457 C-310.27974014 418.99744584 -310.27974014 418.99744584 -320.5625 418 C-326.17634853 415.6297084 -329.09684662 411.40865688 -331.4375 405.9375 C-334.24088518 398.51931151 -336.35823209 390.87077628 -338.59521484 383.26806641 C-340.53567507 376.71203396 -342.51854191 370.16873326 -344.5 363.625 C-344.71796234 362.90469604 -344.93592468 362.18439209 -345.16049194 361.44226074 C-347.9673068 352.17257476 -350.83046598 342.92398595 -353.79956055 333.70483398 C-357.23262663 322.99715194 -360.4786677 312.23121825 -363.74389648 301.47143555 C-364.19884292 299.97438185 -364.6539969 298.4773912 -365.109375 296.98046875 C-365.32758408 296.26289902 -365.54579315 295.54532928 -365.77061462 294.80601501 C-367.08521347 290.50306848 -368.47770523 286.23570995 -369.93554688 281.97973633 C-370.62854552 279.79144738 -371.17315451 277.5906662 -371.7109375 275.359375 C-373.72507685 266.75789672 -373.72507685 266.75789672 -379 260.04296875 C-381.75282614 259.00699827 -384.47515152 258.25276344 -387.33886719 257.59179688 C-392.03692463 256.34145748 -396.53138491 254.43413296 -401.0625 252.6875 C-403.15419034 251.90162649 -405.24664469 251.11778362 -407.33984375 250.3359375 C-431.34962002 241.33087483 -431.34962002 241.33087483 -441.9375 237 C-448.03700801 234.5336772 -454.2114847 232.37434844 -460.4375 230.25 C-469.11726293 227.27108614 -477.70898623 224.1067737 -486.25 220.75 C-487.85367432 220.1317334 -487.85367432 220.1317334 -489.48974609 219.50097656 C-490.48699707 219.10362305 -491.48424805 218.70626953 -492.51171875 218.296875 C-493.39174561 217.94979492 -494.27177246 217.60271484 -495.1784668 217.24511719 C-497.90991236 215.81855576 -499.61800428 214.38947177 -501.5625 212 C-502.361286 209.05230216 -502.21195262 206.10685084 -502.1875 203.0625 C-502.21972656 202.26392578 -502.25195312 201.46535156 -502.28515625 200.64257812 C-502.29241995 196.25893721 -502.0438622 194.54594433 -499.05859375 191.16015625 C-495.32264999 188.58756954 -491.22741002 186.96194572 -487 185.375 C-486.14575439 185.04363037 -485.29150879 184.71226074 -484.41137695 184.37084961 C-481.46677387 183.23363969 -478.51528277 182.11579175 -475.5625 181 C-473.24472251 180.11867144 -470.92701728 179.23715282 -468.609375 178.35546875 C-464.91188526 176.95100166 -461.21359985 175.54875333 -457.51342773 174.15136719 C-447.92760503 170.53065746 -438.37803208 166.82431697 -428.84375 163.0703125 C-422.76320288 160.67917061 -416.66288185 158.33997266 -410.5625 156 C-408.60672483 155.24881769 -406.65099451 154.49751859 -404.6953125 153.74609375 C-403.72400391 153.37291016 -402.75269531 152.99972656 -401.75195312 152.61523438 C-390.19199386 148.17249668 -378.63959443 143.71059205 -367.09176636 139.2364502 C-356.90661252 135.29051016 -346.71477556 131.3622937 -336.51806641 127.44628906 C-329.59368749 124.78564761 -322.67893905 122.10130721 -315.76904297 119.40332031 C-310.98585888 117.54054753 -306.18570804 115.72785534 -301.375 113.9375 C-295.83899046 111.87596218 -290.34622141 109.72644674 -284.86767578 107.515625 C-271.45518134 102.12489257 -257.91748463 97.04440881 -244.4140625 91.88671875 C-241.56769432 90.79951585 -238.72133498 89.71228983 -235.875 88.625 C-235.15745544 88.35091309 -234.43991089 88.07682617 -233.70062256 87.79443359 C-219.58779619 82.40247554 -205.49629573 76.95641964 -191.41113281 71.49267578 C-184.85839858 68.95092949 -178.30428107 66.41275435 -171.75 63.875 C-171.10229645 63.62418671 -170.4545929 63.37337341 -169.78726196 63.11495972 C-160.00575146 59.32759677 -150.21788238 55.55697252 -140.42651367 51.79516602 C-127.92584579 46.99032088 -115.43766307 42.15327154 -102.95068359 37.31298828 C-100.06781439 36.19581934 -97.18442707 35.08000589 -94.30078125 33.96484375 C-85.89560493 30.71024159 -77.51434981 27.40135201 -69.16137695 24.01464844 C-63.46949598 21.72020924 -57.7331409 19.55283115 -51.98387146 17.40739441 C-46.91437973 15.51341697 -41.85844636 13.58631998 -36.80859375 11.640625 C-35.72091705 11.22219078 -35.72091705 11.22219078 -34.61126709 10.79530334 C-31.65284784 9.65710715 -28.69458511 8.51853792 -25.73803711 7.37548828 C-23.53343693 6.52361874 -21.32739764 5.67557052 -19.12109375 4.828125 C-18.46370712 4.57291077 -17.8063205 4.31769653 -17.12901306 4.05474854 C-5.3163526 -0.46995382 -5.3163526 -0.46995382 0 0 Z M-124.1875 107.6875 C-125.05576416 108.212229 -125.92402832 108.73695801 -126.81860352 109.27758789 C-133.37987142 113.25358505 -139.89597167 117.29916924 -146.390625 121.3828125 C-152.05255535 124.9413494 -157.74321975 128.45345448 -163.43115234 131.97021484 C-167.91273209 134.74113194 -172.39266808 137.51456754 -176.8671875 140.296875 C-185.49802057 145.65973827 -194.15147634 150.97652335 -202.875 156.1875 C-214.49942197 163.13459967 -225.96536643 170.29661775 -237.3125 177.6875 C-242.86607451 181.30086351 -248.46608717 184.76897641 -254.21484375 188.06640625 C-265.47667616 194.5711986 -276.58892875 201.31003051 -287.4921875 208.3984375 C-292.48148381 211.61236934 -297.54148861 214.71248308 -302.59719849 217.82046509 C-304.30619863 218.87112604 -306.01431929 219.9232066 -307.72241211 220.9753418 C-312.79424539 224.09401483 -317.87288906 227.19680311 -322.99609375 230.23046875 C-323.80788086 230.71467285 -324.61966797 231.19887695 -325.45605469 231.69775391 C-326.92150495 232.56960011 -328.39179128 233.4334015 -329.86816406 234.28662109 C-335.55025381 237.67772576 -340.89061504 241.80161138 -344 247.75 C-345.9226601 258.85870278 -343.11464375 268.55373651 -340 279.125 C-339.5387283 280.72909252 -339.07886275 282.33359001 -338.62036133 283.93847656 C-337.70471528 287.13770283 -336.78207324 290.33477176 -335.85351562 293.53027344 C-334.39657422 298.55567718 -332.99978125 303.59643096 -331.60839844 308.64038086 C-329.11186727 317.68427091 -326.49539839 326.67142307 -323.60546875 335.59765625 C-322.82340586 338.14888013 -322.14651143 340.65561411 -321.52734375 343.24609375 C-320.63542995 346.71625231 -319.57567334 349.07174788 -317.5625 352 C-315.9125 351.67 -314.2625 351.34 -312.5625 351 C-311.03451601 346.78491292 -310.13029839 342.82275244 -309.5625 338.37890625 C-309.3975 337.11240234 -309.2325 335.84589844 -309.0625 334.54101562 C-308.89565191 333.21486656 -308.72898563 331.88869461 -308.5625 330.5625 C-308.22916667 327.98046875 -307.89583333 325.3984375 -307.5625 322.81640625 C-307.05227833 318.85472892 -306.54827896 314.89279664 -306.07128906 310.92700195 C-305.82717285 308.96380005 -305.82717285 308.96380005 -305.578125 306.9609375 C-305.43665039 305.78966309 -305.29517578 304.61838867 -305.14941406 303.41162109 C-302.3010544 286.85464192 -291.61989523 275.82132525 -279.5625 265 C-278.9025 264.67 -278.2425 264.34 -277.5625 264 C-277.5625 263.34 -277.5625 262.68 -277.5625 262 C-277.00046875 261.76667969 -276.4384375 261.53335938 -275.859375 261.29296875 C-272.99515858 259.68062924 -271.08997979 257.6806438 -268.8125 255.3125 C-265.9097376 252.35075549 -263.02633683 249.44622035 -259.875 246.75 C-255.9392149 243.3776035 -252.15683399 239.85514595 -248.375 236.3125 C-242.52964838 230.83787876 -236.66450268 225.38632021 -230.7734375 219.9609375 C-228.52331879 217.88849627 -226.27947404 215.80949316 -224.0390625 213.7265625 C-223.45721191 213.18660645 -222.87536133 212.64665039 -222.27587891 212.09033203 C-221.17014109 211.06400314 -220.06556203 210.03642375 -218.96240234 209.00732422 C-216.69863265 206.90882493 -214.41962602 204.88674624 -212 202.96875 C-209.32009974 200.80421517 -206.96660769 198.46669548 -204.5625 196 C-202.62853319 194.03816232 -200.68908248 192.08177945 -198.75 190.125 C-198.26724609 189.63386719 -197.78449219 189.14273438 -197.28710938 188.63671875 C-193.85737765 185.18457048 -190.27392623 181.96584288 -186.59545898 178.78125 C-183.32193344 175.91303307 -180.16390023 172.92549474 -177 169.9375 C-175.60037981 168.62096681 -174.20063722 167.30456373 -172.80078125 165.98828125 C-172.09775879 165.32650879 -171.39473633 164.66473633 -170.67041016 163.98291016 C-167.34824383 160.85774976 -164.01972837 157.73942731 -160.6875 154.625 C-160.06536621 154.04339111 -159.44323242 153.46178223 -158.80224609 152.86254883 C-155.27827069 149.57604441 -151.72185803 146.3319696 -148.125 143.125 C-144.43452505 139.83102236 -140.937553 136.39584581 -137.46484375 132.875 C-135.07905694 130.52350581 -132.56269899 128.3587432 -130.0234375 126.17578125 C-125.98607228 122.60623771 -122.07545692 118.90039804 -118.15356445 115.20483398 C-113.92450015 111.23033368 -109.611358 107.40291295 -105.1015625 103.74609375 C-103.18349955 101.57001726 -102.90254817 99.84183112 -102.5625 97 C-109.66225419 97 -118.245688 104.07195507 -124.1875 107.6875 Z " fill="#7F7F7F" transform="translate(501.5625,31)"/>
<path d="M0 0 C1.03060547 0.36931641 1.03060547 0.36931641 2.08203125 0.74609375 C2.765625 2.5078125 2.765625 2.5078125 3.08203125 4.74609375 C1.9296875 6.640625 1.9296875 6.640625 0.14453125 8.55859375 C-0.42136719 9.18378906 -0.98726562 9.80898437 -1.5703125 10.453125 C-4.2134666 13.03470813 -6.97930616 15.43708461 -9.77026367 17.85668945 C-13.2985922 20.960672 -16.69701517 24.19923105 -20.10546875 27.43359375 C-25.96869449 32.97728885 -31.8565472 38.49055946 -37.80737305 43.94018555 C-40.57624055 46.48156286 -43.28233344 49.06663553 -45.91796875 51.74609375 C-46.57796875 51.41609375 -47.23796875 51.08609375 -47.91796875 50.74609375 C-44.20198116 46.98293053 -40.47517049 43.23069604 -36.73046875 39.49609375 C-36.09753906 38.86445313 -35.46460938 38.2328125 -34.8125 37.58203125 C-32.33607766 35.18219929 -29.77122902 32.9039999 -27.13671875 30.6796875 C-23.13419346 27.19157127 -19.29986343 23.51794288 -15.43481445 19.87890625 C-11.5138566 16.19790607 -7.54439624 12.62719822 -3.3359375 9.2734375 C-1.50621393 7.30257823 -0.78940493 5.26688232 0.08203125 2.74609375 C-15.24898292 9.85071007 -29.46557121 19.14928531 -43.74609375 28.12890625 C-49.4080241 31.68744315 -55.0986885 35.19954823 -60.78662109 38.71630859 C-65.26820084 41.48722569 -69.74813683 44.26066129 -74.22265625 47.04296875 C-82.85348932 52.40583202 -91.50694509 57.7226171 -100.23046875 62.93359375 C-111.85489072 69.88069342 -123.32083518 77.0427115 -134.66796875 84.43359375 C-140.22154326 88.04695726 -145.82155592 91.51507016 -151.5703125 94.8125 C-162.83214491 101.31729235 -173.9443975 108.05612426 -184.84765625 115.14453125 C-190.40109142 118.72186181 -196.04059257 122.16183653 -201.66796875 125.62109375 C-202.23118835 125.9678717 -202.79440796 126.31464966 -203.37469482 126.67193604 C-209.0260021 130.15145743 -214.68352988 133.61777054 -220.38671875 137.01171875 C-221.20301758 137.50043457 -222.01931641 137.98915039 -222.86035156 138.49267578 C-224.33955954 139.37625684 -225.82295119 140.25289331 -227.31152344 141.12060547 C-232.60219875 144.28854284 -237.42159099 147.8213554 -240.29296875 153.43359375 C-242.38655582 164.52960521 -239.46907616 174.30334763 -236.35546875 184.87109375 C-235.89419705 186.47518627 -235.4343315 188.07968376 -234.97583008 189.68457031 C-234.06018403 192.88379658 -233.13754199 196.08086551 -232.20898438 199.27636719 C-230.75204297 204.30177093 -229.35525 209.34252471 -227.96386719 214.38647461 C-225.46733602 223.43036466 -222.85086714 232.41751682 -219.9609375 241.34375 C-219.17645546 243.90286557 -218.48471053 246.42682576 -217.8515625 249.0234375 C-217.11898931 251.94453478 -216.41787578 254.17482456 -214.91796875 256.74609375 C-213.26796875 256.41609375 -211.61796875 256.08609375 -209.91796875 255.74609375 C-208.36123355 246.87270314 -206.87133957 238.01219011 -205.85546875 229.05859375 C-205.77482178 228.36032471 -205.6941748 227.66205566 -205.61108398 226.94262695 C-205.22488681 223.56507142 -204.8626425 220.18785184 -204.52734375 216.8046875 C-202.62515581 199.63215749 -196.22280066 188.65882548 -184.16796875 176.74609375 C-183.49636719 176.06675781 -182.82476562 175.38742187 -182.1328125 174.6875 C-181.48957031 174.04683594 -180.84632813 173.40617188 -180.18359375 172.74609375 C-179.60383789 172.16859375 -179.02408203 171.59109375 -178.42675781 170.99609375 C-176.91796875 169.74609375 -176.91796875 169.74609375 -174.91796875 169.74609375 C-174.91796875 169.08609375 -174.91796875 168.42609375 -174.91796875 167.74609375 C-173.4777832 166.31616211 -173.4777832 166.31616211 -171.46875 164.6484375 C-168.39472639 162.03629626 -165.42547813 159.36484974 -162.5234375 156.5625 C-161.79576172 155.86318359 -161.06808594 155.16386719 -160.31835938 154.44335938 C-158.81931296 152.99723605 -157.32464194 151.54656587 -155.83398438 150.09179688 C-155.11275391 149.40150391 -154.39152344 148.71121094 -153.6484375 148 C-153.00285889 147.37424072 -152.35728027 146.74848145 -151.69213867 146.10375977 C-149.91796875 144.74609375 -149.91796875 144.74609375 -146.91796875 144.74609375 C-148.91471211 146.77023145 -150.91524 148.79039138 -152.91796875 150.80859375 C-153.47097656 151.36998047 -154.02398437 151.93136719 -154.59375 152.50976562 C-158.21552781 156.15235825 -161.965847 159.57743599 -165.8515625 162.93579102 C-169.4576459 166.09494843 -172.93294189 169.39217949 -176.41796875 172.68359375 C-177.12566406 173.34810547 -177.83335937 174.01261719 -178.5625 174.69726562 C-180.69106262 176.70325105 -182.80643821 178.72219783 -184.91796875 180.74609375 C-185.64193848 181.43147217 -186.3659082 182.11685059 -187.11181641 182.82299805 C-190.93211035 186.51653367 -193.98633441 189.82366186 -196.29296875 194.68359375 C-196.75445312 195.62074219 -197.2159375 196.55789063 -197.69140625 197.5234375 C-200.47689573 204.84200062 -201.38502801 212.5581301 -202.3203125 220.29296875 C-202.57313698 222.2917212 -202.82640519 224.29041756 -203.08007812 226.2890625 C-203.47105183 229.40453411 -203.85842058 232.52033 -204.23803711 235.63720703 C-204.60930815 238.66968989 -204.99499377 241.70006394 -205.3828125 244.73046875 C-205.49229721 245.6607489 -205.60178192 246.59102905 -205.71458435 247.54949951 C-206.31914613 252.19396376 -206.81950305 256.02926575 -209.91796875 259.74609375 C-212.91796875 260.30859375 -212.91796875 260.30859375 -215.91796875 259.74609375 C-218.36661984 257.0617112 -219.49310482 254.54071092 -220.47680664 251.07397461 C-220.74494171 250.14495331 -221.01307678 249.21593201 -221.28933716 248.25875854 C-221.57026215 247.2529776 -221.85118713 246.24719666 -222.140625 245.2109375 C-222.44265839 244.15633331 -222.74469177 243.10172913 -223.05587769 242.01516724 C-224.0393241 238.573687 -225.01043481 235.12887646 -225.98046875 231.68359375 C-226.65183607 229.31615774 -227.32379527 226.94888951 -227.99633789 224.58178711 C-229.00852954 221.01868395 -230.01999476 217.45539206 -231.02787781 213.8910675 C-233.00724247 206.90123542 -235.03810335 199.92989727 -237.12890625 192.97265625 C-237.8230925 190.63924562 -238.5159252 188.30543806 -239.20822144 185.97146606 C-239.63302475 184.55192316 -240.06360769 183.1340944 -240.5005188 181.7182312 C-243.46405696 172.10005626 -246.61175637 161.08868885 -242.41796875 151.37109375 C-238.00999266 143.98792612 -230.18654641 139.41747141 -222.91796875 135.24609375 C-221.14198179 134.20394574 -219.36729805 133.15957445 -217.59375 132.11328125 C-216.20470459 131.2948877 -216.20470459 131.2948877 -214.78759766 130.45996094 C-209.84503247 127.50804605 -204.97791087 124.43689114 -200.10546875 121.37109375 C-191.22929359 115.79723446 -182.30679971 110.30720921 -173.34570312 104.87109375 C-166.21666994 100.54397039 -159.11785119 96.17036287 -152.03125 91.77416992 C-145.10670099 87.47922098 -138.17098245 83.20269366 -131.23046875 78.93359375 C-130.13887451 78.26215332 -129.04728027 77.59071289 -127.92260742 76.89892578 C-125.69796051 75.53069043 -123.47326954 74.16252671 -121.24853516 72.79443359 C-115.80429308 69.44615687 -110.3611657 66.09606913 -104.91796875 62.74609375 C-98.35994659 58.71000742 -91.80166125 54.67435189 -85.2421875 50.640625 C-74.45196189 44.00438296 -63.66731408 37.35953589 -52.90039062 30.68554688 C-48.07137731 27.69369829 -43.23741353 24.71008745 -38.3984375 21.734375 C-37.27912842 21.04593506 -36.15981934 20.35749512 -35.0065918 19.64819336 C-32.76050613 18.2682316 -30.51329346 16.89010233 -28.26489258 15.51391602 C-23.43559521 12.55327585 -18.62400784 9.57885434 -13.88671875 6.47265625 C-13.15106689 5.99465576 -12.41541504 5.51665527 -11.6574707 5.02416992 C-10.33775068 4.16199471 -9.02562042 3.28802722 -7.72338867 2.3996582 C-4.91588342 0.57325548 -3.39471245 -0.29538997 0 0 Z " fill="#FAFAFA" transform="translate(398.91796875,125.25390625)"/>
<path d="M0 0 C0.33 0 0.66 0 1 0 C1.15277912 5.53785735 0.69226414 10.5190262 -0.546875 15.9296875 C-0.71401001 16.692742 -0.88114502 17.45579651 -1.05334473 18.24197388 C-1.41899369 19.90834243 -1.78827313 21.5739176 -2.1607666 23.23876953 C-3.19852509 27.88170143 -4.20644897 32.53115135 -5.21875 37.1796875 C-5.43847473 38.18537781 -5.65819946 39.19106812 -5.88458252 40.22723389 C-8.49615964 52.21166483 -10.98745042 64.2209366 -13.4708252 76.23248291 C-14.22824775 79.89482208 -14.98855669 83.55655366 -15.74902344 87.21826172 C-18.10743346 98.60871919 -20.39357511 110.00643248 -22.546875 121.4375 C-23.97501128 128.99648075 -25.53231583 136.48932504 -27.37890625 143.95703125 C-29.62593944 153.07063458 -31.51491133 162.24396096 -33.33984375 171.44921875 C-33.48567524 172.18422733 -33.63150673 172.91923592 -33.78175735 173.67651749 C-34.99114265 179.77949408 -36.19059697 185.8844154 -37.3895874 191.98944092 C-38.43087541 197.28945455 -39.47597558 202.58869496 -40.52734375 207.88671875 C-40.6731551 208.62179594 -40.81896645 209.35687313 -40.96919632 210.11422539 C-43.32504194 221.95570655 -45.92322234 233.72669337 -48.71606445 245.47363281 C-50.01709137 250.97970228 -51.15614018 256.51197212 -52.25 262.0625 C-52.46374268 263.14305664 -52.67748535 264.22361328 -52.89770508 265.33691406 C-53.08228271 266.28276367 -53.26686035 267.22861328 -53.45703125 268.203125 C-55.56596258 278.91655487 -57.75504177 289.61385235 -59.9375 300.3125 C-60.1590274 301.39874664 -60.38055481 302.48499329 -60.60879517 303.60415649 C-63.20833117 316.34172895 -65.83453747 329.07106028 -68.59472656 341.77490234 C-70.3411176 349.84497774 -72.02883079 357.92640364 -73.703125 366.01171875 C-73.94668228 367.18777679 -74.19023956 368.36383484 -74.44117737 369.57553101 C-75.67345081 375.52934071 -76.90321966 381.48365948 -78.13061523 387.43847656 C-85.30060893 422.1767805 -85.30060893 422.1767805 -91.375 426.8125 C-97.24188828 429.46656851 -102.00134824 429.14441528 -108 427 C-110.51625803 425.59394634 -112.73749858 423.90509969 -115 422.125 C-115.95604126 421.3990564 -115.95604126 421.3990564 -116.93139648 420.65844727 C-118.27835377 419.63472031 -119.62132006 418.60572313 -120.96044922 417.57177734 C-124.30386719 414.99517633 -127.68516976 412.46937012 -131.0625 409.9375 C-131.72290283 409.43935791 -132.38330566 408.94121582 -133.0637207 408.42797852 C-138.09931964 404.63846648 -143.20741305 400.96093159 -148.39672852 397.38452148 C-151.99637449 394.86449722 -154.98680817 392.16972128 -158 389 C-153.74077176 390.44565046 -150.75025897 392.57297922 -147.25 395.375 C-140.10853694 401.00091806 -132.70613681 406.21401326 -125.25537109 411.41943359 C-122.90025324 413.06990263 -120.55273481 414.73071273 -118.20703125 416.39453125 C-117.4294043 416.9457666 -116.65177734 417.49700195 -115.85058594 418.06494141 C-114.35199095 419.12764545 -112.85392369 420.19109418 -111.35644531 421.25537109 C-110.68323242 421.73184082 -110.01001953 422.20831055 -109.31640625 422.69921875 C-108.72287354 423.12033936 -108.12934082 423.54145996 -107.51782227 423.9753418 C-103.86315674 426.44254965 -100.29105873 426.49417183 -96 426 C-93.18219466 424.61114752 -93.18219466 424.61114752 -91 423 C-90.34 423 -89.68 423 -89 423 C-86.94749553 416.48281109 -85.24149172 409.98539734 -83.87231445 403.29296875 C-83.67870205 402.36490575 -83.48508965 401.43684275 -83.2856102 400.48065662 C-82.64064842 397.3837912 -82.0019834 394.28566197 -81.36328125 391.1875 C-80.89601108 388.93747569 -80.42834285 386.68753402 -79.96031189 384.43766785 C-78.94486633 379.55202698 -77.93223757 374.66581359 -76.92175293 369.77914429 C-75.4207479 362.52043356 -73.91476157 355.26276618 -72.40742183 348.00536907 C-70.02250797 336.52230866 -67.64057619 325.03863225 -65.26078916 313.55450833 C-61.26201288 294.25772244 -57.25530585 274.96258886 -53.24609375 255.66796875 C-53.08309666 254.88352135 -52.92009957 254.09907394 -52.75216317 253.29085541 C-51.25696409 246.09500486 -49.76171441 238.89916483 -48.26634312 231.70335007 C-46.25395273 222.01953346 -44.24208287 212.33560888 -42.23061848 202.65159988 C-32.34417568 155.05443693 -22.43171428 107.46273665 -12.5 59.875 C-12.33931093 59.10505691 -12.17862186 58.33511382 -12.01306343 57.54183912 C-8.00992697 38.36097175 -4.0056405 19.18034461 0 0 Z " fill="#F7F7F7" transform="translate(511,52)"/>
<path d="M0 0 C0.53625 0.7425 1.0725 1.485 1.625 2.25 C5.73210259 7.00559247 10.56141695 9.43064426 16.39282227 11.57104492 C17.00499509 11.79823495 17.61716791 12.02542498 18.24789143 12.25949955 C20.26809151 13.00720837 22.29215517 13.74380543 24.31640625 14.48046875 C25.75629791 15.01105955 27.19591826 15.54238715 28.63528442 16.07440186 C31.69110002 17.20237375 34.74857404 18.32567612 37.8074646 19.44528198 C42.5745353 21.19046518 47.33714201 22.9475939 52.09887695 24.70727539 C57.65756693 26.76086505 63.21680567 28.81294337 68.77725887 30.86175442 C80.46719747 35.16911456 92.15254406 39.48836411 103.81735229 43.86343384 C105.72232341 44.57631179 107.62850718 45.28595807 109.53591919 45.99227905 C112.1349107 46.954767 114.72997516 47.92714523 117.32421875 48.90234375 C118.07083771 49.17616882 118.81745667 49.4499939 119.58670044 49.7321167 C123.06219826 51.05167223 125.6776618 52.07352955 128 55 C129.12677002 57.80822754 129.12677002 57.80822754 130.19238281 61.25976562 C130.48805649 62.20416756 130.48805649 62.20416756 130.78970337 63.16764832 C131.43703328 65.24436546 132.07045838 67.32502302 132.703125 69.40625 C133.14906242 70.85226906 133.59558358 72.29810821 134.04266357 73.74377441 C134.97664095 76.77151064 135.90380286 79.80122746 136.82617188 82.83251953 C138.00972535 86.72036338 139.2095994 90.60293819 140.41453934 94.48419952 C141.33885785 97.46760982 142.25474062 100.45355725 143.16805267 103.44035339 C143.60728452 104.87328782 144.04909458 106.30543456 144.49350739 107.73677063 C145.11263228 109.73543089 145.72038522 111.73720343 146.32519531 113.74023438 C146.67366516 114.87924194 147.02213501 116.01824951 147.38116455 117.19177246 C148 120 148 120 147 123 C138.26131328 96.96962623 138.26131328 96.96962623 135.4375 87.875 C135.05464844 86.68003906 134.67179688 85.48507812 134.27734375 84.25390625 C133.18498952 80.74945196 132.28344118 77.20955623 131.37890625 73.65234375 C128.76180972 62.14048207 128.76180972 62.14048207 122.4375 52.60546875 C119.69188414 51.57221172 117.08000434 50.95970748 114.19140625 50.47900391 C109.46295805 49.44544604 104.99856313 47.44155142 100.5 45.6875 C98.40864559 44.90073296 96.31618783 44.11689279 94.22265625 43.3359375 C70.21287998 34.33087483 70.21287998 34.33087483 59.625 30 C53.52549199 27.5336772 47.3510153 25.37434844 41.125 23.25 C32.44523707 20.27108614 23.85351377 17.1067737 15.3125 13.75 C13.70882568 13.1317334 13.70882568 13.1317334 12.07275391 12.50097656 C11.07550293 12.10362305 10.07825195 11.70626953 9.05078125 11.296875 C7.73074097 10.77625488 7.73074097 10.77625488 6.3840332 10.24511719 C3.68182456 8.83382542 1.95486665 7.33247625 0 5 C-0.25 2.25 -0.25 2.25 0 0 Z " fill="#F9F9F9" transform="translate(0,238)"/>
<path d="M0 0 C2.54859803 1.65032168 4.38992745 3.42141637 6 6 C6.375 8.875 6.375 8.875 6 11 C5.195625 9.88625 5.195625 9.88625 4.375 8.75 C0.7980126 4.60822512 -2.00349173 2.18494029 -7.56860352 1.66943359 C-12.83926505 1.79674898 -17.31008409 3.6564086 -22.15234375 5.6015625 C-23.13914124 5.98523987 -24.12593872 6.36891724 -25.14263916 6.76422119 C-28.41257401 8.03879547 -31.67480901 9.33200797 -34.9375 10.625 C-37.26092864 11.53411142 -39.58491516 12.44179821 -41.90942383 13.34814453 C-46.17792029 15.01379029 -50.44492318 16.68310949 -54.70958233 18.35855675 C-66.00782628 22.79677181 -77.33603602 27.15677446 -88.66421509 31.5178833 C-94.56799303 33.79193034 -100.46944834 36.07198814 -106.37109375 38.3515625 C-115.93840859 42.04623454 -125.50639967 45.7391485 -135.07496071 49.43059158 C-139.04591818 50.9625673 -143.01681322 52.49470485 -146.98771572 54.02682304 C-150.16667051 55.25335992 -153.34566552 56.47979233 -156.52474976 57.70599365 C-160.03223248 59.05892529 -163.53956953 60.41223392 -167.046875 61.765625 C-168.08679092 62.16663422 -169.12670685 62.56764343 -170.19813538 62.98080444 C-171.15723312 63.35097687 -172.11633087 63.72114929 -173.10449219 64.10253906 C-173.93406433 64.42256897 -174.76363647 64.74259888 -175.61834717 65.07232666 C-177.30386996 65.72885163 -178.96957721 66.43733919 -180.61846924 67.18109131 C-183 68 -183 68 -186 67 C-160.42649959 56.40287209 -134.58410765 46.56491904 -108.64990234 36.89013672 C-103.14584024 34.82911888 -97.69897245 32.6788265 -92.29296875 30.37109375 C-87.47298824 28.36419795 -82.61179304 26.46547157 -77.75 24.5625 C-76.833396 24.20285156 -75.91679199 23.84320313 -74.97241211 23.47265625 C-68.77683534 21.05297323 -62.55645229 18.70324999 -56.32588196 16.37556458 C-51.28879763 14.49080306 -46.26477257 12.57382161 -41.24609375 10.640625 C-40.52082489 10.3616185 -39.79555603 10.082612 -39.04830933 9.79515076 C-36.09005067 8.65698469 -33.13193522 7.51847998 -30.17553711 6.37548828 C-27.97093693 5.52361874 -25.76489764 4.67557052 -23.55859375 3.828125 C-22.90120712 3.57291077 -22.2438205 3.31769653 -21.56651306 3.05474854 C-7.49468691 -2.33530099 -7.49468691 -2.33530099 0 0 Z " fill="#F8F8F8" transform="translate(506,32)"/>
<path d="M0 0 C0.99 0.495 0.99 0.495 2 1 C0.00325664 3.0241377 -1.99727125 5.04429763 -4 7.0625 C-4.55300781 7.62388672 -5.10601562 8.18527344 -5.67578125 8.76367188 C-9.29755906 12.4062645 -13.04787825 15.83134224 -16.93359375 19.18969727 C-20.53967715 22.34885468 -24.01497314 25.64608574 -27.5 28.9375 C-28.56154297 29.93426758 -28.56154297 29.93426758 -29.64453125 30.95117188 C-31.77309387 32.9571573 -33.88846946 34.97610408 -36 37 C-37.08595459 38.02806763 -37.08595459 38.02806763 -38.19384766 39.0769043 C-42.0141416 42.77043992 -45.06836566 46.07756811 -47.375 50.9375 C-47.83648437 51.87464844 -48.29796875 52.81179688 -48.7734375 53.77734375 C-51.55892698 61.09590687 -52.46705926 68.81203635 -53.40234375 76.546875 C-53.65516823 78.54562745 -53.90843644 80.54432381 -54.16210938 82.54296875 C-54.55308308 85.65844036 -54.94045183 88.77423625 -55.32006836 91.89111328 C-55.6913394 94.92359614 -56.07702502 97.95397019 -56.46484375 100.984375 C-56.57432846 101.91465515 -56.68381317 102.8449353 -56.7966156 103.80340576 C-57.40117738 108.44787001 -57.9015343 112.283172 -61 116 C-64 116.5625 -64 116.5625 -67 116 C-70.15936057 113.16746984 -70.53374641 110.10303158 -71 106 C-68.65941363 108.12780579 -67.29299694 110.11562221 -66 113 C-63.525 112.505 -63.525 112.505 -61 112 C-59.4432648 103.12660939 -57.95337082 94.26609636 -56.9375 85.3125 C-56.81652954 84.26509644 -56.81652954 84.26509644 -56.69311523 83.1965332 C-56.30691806 79.81897767 -55.94467375 76.44175809 -55.609375 73.05859375 C-53.70718706 55.88606374 -47.30483191 44.91273173 -35.25 33 C-34.24259766 31.98099609 -34.24259766 31.98099609 -33.21484375 30.94140625 C-32.57160156 30.30074219 -31.92835938 29.66007812 -31.265625 29 C-30.68586914 28.4225 -30.10611328 27.845 -29.50878906 27.25 C-28 26 -28 26 -26 26 C-26 25.34 -26 24.68 -26 24 C-24.56420898 22.56787109 -24.56420898 22.56787109 -22.55859375 20.8984375 C-17.91695498 16.9514588 -13.48611315 12.81335561 -9.0625 8.625 C-8.29615234 7.90183594 -7.52980469 7.17867188 -6.74023438 6.43359375 C-3.33916078 3.24883727 -3.33916078 3.24883727 0 0 Z " fill="#FAFAFA" transform="translate(250,269)"/>
<path d="M0 0 C0.66 0.33 1.32 0.66 2 1 C0.16994917 2.8575016 -1.66392011 4.71097232 -3.5 6.5625 C-4.0053125 7.07619141 -4.510625 7.58988281 -5.03125 8.11914062 C-8.53681076 11.64661114 -12.18652322 14.94519744 -15.94677734 18.19848633 C-19.40250422 21.23056821 -22.72691341 24.39955876 -26.0625 27.5625 C-27.5492778 28.96635913 -29.03626126 30.37000047 -30.5234375 31.7734375 C-31.2669043 32.4756543 -32.01037109 33.17787109 -32.77636719 33.90136719 C-36.24016978 37.17045449 -39.71108205 40.43183481 -43.1875 43.6875 C-43.7863501 44.25090088 -44.3852002 44.81430176 -45.00219727 45.39477539 C-48.5682195 48.73108917 -52.21973201 51.90809644 -56 55 C-56 52 -56 52 -54.53125 50.45703125 C-53.8609375 49.91433594 -53.190625 49.37164062 -52.5 48.8125 C-48.87097184 45.77766131 -45.53470219 42.58951298 -42.25 39.1875 C-39.62469627 36.63512138 -36.87343326 34.25675655 -34.10986328 31.85595703 C-30.81513965 28.95772872 -27.62731904 25.95017413 -24.4375 22.9375 C-23.04964121 21.63133821 -21.66161593 20.32535331 -20.2734375 19.01953125 C-19.57186523 18.35904785 -18.87029297 17.69856445 -18.14746094 17.01806641 C-13.979497 13.10124172 -9.79320717 9.20403804 -5.60913086 5.30444336 C-2.77344323 2.68467089 -2.77344323 2.68467089 0 0 Z " fill="#F4F4F4" transform="translate(349,177)"/>
<path d="M0 0 C0.66 0.33 1.32 0.66 2 1 C0.00325664 3.0241377 -1.99727125 5.04429763 -4 7.0625 C-4.55300781 7.62388672 -5.10601562 8.18527344 -5.67578125 8.76367188 C-9.29755906 12.4062645 -13.04787825 15.83134224 -16.93359375 19.18969727 C-20.53967715 22.34885468 -24.01497314 25.64608574 -27.5 28.9375 C-28.56154297 29.93426758 -28.56154297 29.93426758 -29.64453125 30.95117188 C-31.77308288 32.95714695 -33.88761746 34.97701756 -36 37 C-36.72251953 37.67885254 -37.44503906 38.35770508 -38.18945312 39.05712891 C-42.21122581 42.92258154 -45.15993083 46.35184782 -47.5 51.5 C-47.9846875 52.5415625 -48.469375 53.583125 -48.96875 54.65625 C-49.3090625 55.4296875 -49.649375 56.203125 -50 57 C-50.97669295 54.43195847 -51.13389975 53.3331639 -50.09277344 50.74267578 C-46.15666423 44.31507941 -41.65753567 39.1063038 -36.25 33.875 C-35.48300781 33.10929687 -34.71601563 32.34359375 -33.92578125 31.5546875 C-28.28182199 26 -28.28182199 26 -26 26 C-26 25.34 -26 24.68 -26 24 C-24.56420898 22.56787109 -24.56420898 22.56787109 -22.55859375 20.8984375 C-17.91695498 16.9514588 -13.48611315 12.81335561 -9.0625 8.625 C-8.29615234 7.90183594 -7.52980469 7.17867188 -6.74023438 6.43359375 C-3.33916078 3.24883727 -3.33916078 3.24883727 0 0 Z " fill="#F0F0F0" transform="translate(250,269)"/>
<path d="M0 0 C0.66 0.33 1.32 0.66 2 1 C-5.1497816 7.68499635 -12.30078036 14.36821768 -19.5 21 C-24.38938497 25.50545391 -29.26240484 30.02814173 -34.125 34.5625 C-34.76501953 35.15869141 -35.40503906 35.75488281 -36.06445312 36.36914062 C-36.66451172 36.92923828 -37.26457031 37.48933594 -37.8828125 38.06640625 C-38.41277832 38.56084229 -38.94274414 39.05527832 -39.48876953 39.56469727 C-41.01900047 41.01804584 -42.51431629 42.50125473 -44 44 C-44.66 43.67 -45.32 43.34 -46 43 C-42.28401241 39.23683678 -38.55720174 35.48460229 -34.8125 31.75 C-34.17957031 31.11835938 -33.54664063 30.48671875 -32.89453125 29.8359375 C-30.41810891 27.43610554 -27.85326027 25.15790615 -25.21875 22.93359375 C-21.89963757 20.04105739 -18.70925275 17.01338104 -15.5 14 C-10.41787741 9.23264922 -5.31109365 4.51358119 0 0 Z " fill="#EEEEEE" transform="translate(397,133)"/>
<path d="M0 0 C-1.45237061 0.53572632 -1.45237061 0.53572632 -2.93408203 1.08227539 C-6.55396116 2.42382086 -10.1630027 3.79268761 -13.76953125 5.16967773 C-15.32631501 5.75976461 -16.88587268 6.34259006 -18.44824219 6.91772461 C-30.41448527 11.07789052 -30.41448527 11.07789052 -39 20 C-39.33 18.68 -39.66 17.36 -40 16 C-35.19608479 11.49388052 -30.44230937 9.2438616 -24.3125 6.9375 C-23.4263501 6.59533447 -22.5402002 6.25316895 -21.62719727 5.90063477 C-19.87820301 5.22784612 -18.12719601 4.5602618 -16.37402344 3.8984375 C-14.36020453 3.13631763 -12.3548785 2.35181508 -10.3515625 1.5625 C-3.38315217 -1.12771739 -3.38315217 -1.12771739 0 0 Z " fill="#F6F6F6" transform="translate(40,209)"/>
<path d="M0 0 C0.66 0.33 1.32 0.66 2 1 C-0.53901285 3.3986586 -3.08168768 5.79340128 -5.625 8.1875 C-6.33785156 8.86103516 -7.05070312 9.53457031 -7.78515625 10.22851562 C-11.75439797 13.96105945 -15.77065976 17.56449491 -20 21 C-20 18 -20 18 -18.53125 16.45703125 C-17.8609375 15.91433594 -17.190625 15.37164062 -16.5 14.8125 C-12.7282114 11.66265526 -9.27580756 8.32624748 -5.859375 4.796875 C-4.01030441 3.00995804 -2.08795607 1.49667647 0 0 Z " fill="#EEEEEE" transform="translate(313,211)"/>
</svg>
