<?xml version="1.0" encoding="UTF-8"?>
<svg version="1.1" xmlns="http://www.w3.org/2000/svg" width="500" height="500">
<path d="M0 0 C1.17170494 -0.01475876 1.17170494 -0.01475876 2.36708069 -0.02981567 C30.32452747 -0.30875587 55.86602612 2.64533888 82.63671875 11.23828125 C83.41611816 11.48835938 84.19551758 11.7384375 84.99853516 11.99609375 C95.14956696 15.34071975 104.4267074 20.02692982 113.7578125 25.20263672 C115.4047205 26.11040488 117.0665006 26.99108306 118.73046875 27.8671875 C129.89812464 33.75587961 139.87866636 41.04568866 149.703125 48.91796875 C152.58935116 51.2652777 152.58935116 51.2652777 155.63671875 53.23828125 C155.63671875 53.89828125 155.63671875 54.55828125 155.63671875 55.23828125 C156.22751221 55.50455322 156.81830566 55.7708252 157.42700195 56.04516602 C159.68613488 57.26496301 161.17917441 58.52254555 162.9921875 60.328125 C163.61005127 60.94179932 164.22791504 61.55547363 164.86450195 62.18774414 C165.5112085 62.84379639 166.15791504 63.49984863 166.82421875 64.17578125 C167.49477295 64.85310303 168.16532715 65.5304248 168.85620117 66.22827148 C178.21711718 75.78352395 186.00875057 86.29266937 193.63671875 97.23828125 C194.4875 98.42550781 194.4875 98.42550781 195.35546875 99.63671875 C199.12949403 105.03678683 202.04986572 110.79449109 204.91796875 116.71484375 C205.96980968 118.87111766 207.04727865 121.0154125 208.16796875 123.13671875 C222.49597984 150.34469726 228.90716446 181.67603617 229.63671875 212.23828125 C229.65863281 213.13981934 229.68054688 214.04135742 229.703125 214.97021484 C230.3308244 245.75363949 225.35942799 276.01952016 212.63671875 304.23828125 C212.3545752 304.8734668 212.07243164 305.50865234 211.78173828 306.16308594 C203.65275501 324.38336924 193.21458535 340.63930504 181.19921875 356.55078125 C180.77390869 357.12070801 180.34859863 357.69063477 179.91040039 358.27783203 C178.86789154 359.6367829 177.75781682 360.94340238 176.63671875 362.23828125 C175.97671875 362.23828125 175.31671875 362.23828125 174.63671875 362.23828125 C174.37044678 362.82907471 174.1041748 363.41986816 173.82983398 364.02856445 C172.61003699 366.28769738 171.35245445 367.78073691 169.546875 369.59375 C168.93320068 370.21161377 168.31952637 370.82947754 167.68725586 371.46606445 C167.03120361 372.112771 166.37515137 372.75947754 165.69921875 373.42578125 C165.02189697 374.09633545 164.3445752 374.76688965 163.64672852 375.45776367 C132.62440867 405.84914595 89.81255269 428.18194255 46.63671875 434.23828125 C45.3321875 434.439375 44.02765625 434.64046875 42.68359375 434.84765625 C21.4747114 437.77740456 -2.25715476 438.0238211 -23.36328125 434.23828125 C-24.2140625 434.08762207 -25.06484375 433.93696289 -25.94140625 433.78173828 C-83.10449262 423.275599 -135.18464242 390.80119166 -168.421875 342.85546875 C-188.94125984 312.81025448 -202.51352969 279.63186284 -206.36328125 243.23828125 C-206.47414062 242.22121094 -206.585 241.20414063 -206.69921875 240.15625 C-210.01147031 203.13960081 -204.69013563 165.23299369 -189.36328125 131.23828125 C-188.94006592 130.28550293 -188.94006592 130.28550293 -188.50830078 129.31347656 C-176.00312655 101.28440949 -157.63316445 74.49075102 -134.36328125 54.23828125 C-133.70328125 54.23828125 -133.04328125 54.23828125 -132.36328125 54.23828125 C-132.36328125 53.57828125 -132.36328125 52.91828125 -132.36328125 52.23828125 C-128.90174279 49.23828125 -128.90174279 49.23828125 -126.36328125 49.23828125 C-126.36328125 48.57828125 -126.36328125 47.91828125 -126.36328125 47.23828125 C-124.37600794 45.64601296 -122.39240322 44.18295005 -120.30078125 42.73828125 C-119.66664307 42.29613281 -119.03250488 41.85398438 -118.37915039 41.3984375 C-117.04016686 40.46811656 -115.69887941 39.54110403 -114.35546875 38.6171875 C-112.4998509 37.33280887 -110.66474531 36.02377851 -108.83203125 34.70703125 C-98.65076293 27.51557928 -87.73003118 22.29093601 -76.36328125 17.23828125 C-75.70924316 16.93937988 -75.05520508 16.64047852 -74.38134766 16.33251953 C-56.22750859 8.07986896 -36.0805648 3.68413569 -16.36328125 1.23828125 C-15.13279053 1.06772217 -13.9022998 0.89716309 -12.63452148 0.72143555 C-8.41686099 0.19731659 -4.24693078 0.04435637 0 0 Z M-97.05078125 81.86328125 C-101.60215538 87.28826037 -104.46171985 93.8303475 -107.36328125 100.23828125 C-107.73839844 101.05941406 -108.11351562 101.88054687 -108.5 102.7265625 C-112.10248728 113.20800739 -111.95911626 128.73844303 -108.36328125 139.23828125 C-108.10675781 140.03105469 -107.85023438 140.82382813 -107.5859375 141.640625 C-105.2073963 148.26583203 -101.62756945 153.67413327 -97.36328125 159.23828125 C-96.72777344 160.07746094 -96.09226562 160.91664063 -95.4375 161.78125 C-84.55730062 174.66947112 -68.78922111 180.71465532 -52.36328125 182.23828125 C-35.38910066 182.26007096 -19.69469126 175.88113537 -7.36328125 164.23828125 C3.84619033 152.56090069 10.3827232 137.52698969 11.07421875 121.36328125 C10.58633166 105.28421981 3.63730923 89.8278498 -7.36328125 78.23828125 C-20.08717224 66.2965185 -33.17569196 61.02335816 -50.55078125 60.92578125 C-51.38206543 60.92022217 -52.21334961 60.91466309 -53.06982422 60.90893555 C-70.4653211 61.11080751 -85.13576111 69.50012982 -97.05078125 81.86328125 Z M57.94921875 112.42578125 C46.59344373 126.9524533 43.05499748 142.7725622 44.91796875 160.98828125 C46.65214078 171.39331342 51.35565726 180.85810854 57.63671875 189.23828125 C58.05179687 189.82996094 58.466875 190.42164063 58.89453125 191.03125 C66.5991251 201.11181141 80.09126133 208.7650093 92.5078125 210.921875 C110.81071738 212.77273055 127.38927432 210.34362269 142.46875 199.1328125 C154.77756451 188.45004721 164.07292084 174.84432568 165.63671875 158.23828125 C166.7429522 141.4034194 162.90289633 125.41221633 151.77587891 112.39501953 C142.08812605 101.7129525 129.15284836 92.07624489 114.22998047 91.07714844 C111.32377414 91.03133107 108.41825615 91.0029979 105.51171875 90.98828125 C104.5165625 90.96765625 103.52140625 90.94703125 102.49609375 90.92578125 C85.05334114 90.83469638 69.22622526 99.3444537 57.94921875 112.42578125 Z M-9.234375 202.2421875 C-15.04218521 209.58203398 -16.12188897 215.99049189 -15.36328125 225.23828125 C-13.94571978 232.29035174 -9.99876119 237.58699201 -4.2421875 241.78515625 C2.76289013 245.88007848 9.68105736 246.26237115 17.63671875 245.23828125 C25.33117644 242.97449714 30.58841604 237.29183152 34.625 230.54296875 C37.66379536 223.62061638 37.11535631 216.20207249 34.63671875 209.23828125 C31.06331091 202.50378185 25.02371013 196.50790759 17.63671875 194.23828125 C6.89205897 192.96120169 -1.5739759 194.038044 -9.234375 202.2421875 Z M-127.80078125 245.02734375 C-132.76234533 251.34354539 -136.57578477 257.70657507 -139.36328125 265.23828125 C-139.68167969 266.07488281 -140.00007813 266.91148437 -140.328125 267.7734375 C-145.04464789 282.18382773 -142.97528047 297.91929093 -136.61328125 311.42578125 C-127.74656552 328.11606968 -114.28557002 338.69866472 -96.36328125 344.23828125 C-80.93562194 348.2331777 -64.4016434 344.69084677 -50.69140625 337.25 C-36.35066542 328.58159445 -27.50057251 315.42589714 -22.55078125 299.6484375 C-19.04911673 285.03385156 -21.22469461 269.40079151 -28.36328125 256.23828125 C-30.26830667 253.16771328 -32.2859086 250.19408577 -34.36328125 247.23828125 C-35.35328125 245.75328125 -35.35328125 245.75328125 -36.36328125 244.23828125 C-37.02328125 244.23828125 -37.68328125 244.23828125 -38.36328125 244.23828125 C-38.85828125 242.75328125 -38.85828125 242.75328125 -39.36328125 241.23828125 C-51.938586 230.00882852 -67.68015028 223.25395766 -84.7890625 223.9609375 C-101.3870422 225.74918721 -116.67964417 232.30219652 -127.80078125 245.02734375 Z M29.63671875 273.23828125 C29.00121094 273.851875 28.36570312 274.46546875 27.7109375 275.09765625 C17.77422014 285.40892837 12.70596557 299.9410496 12.19921875 314.05078125 C12.57366456 328.8169704 18.11031153 345.45822567 28.63671875 356.23828125 C29.29671875 356.23828125 29.95671875 356.23828125 30.63671875 356.23828125 C30.96671875 357.22828125 31.29671875 358.21828125 31.63671875 359.23828125 C45.71920609 371.4550307 61.25770976 376.41727779 79.66357422 375.39355469 C92.96231708 374.34703149 108.72803063 367.3736736 117.63671875 357.23828125 C130.45284633 341.59826116 134.87855564 326.20281222 133.63671875 306.23828125 C133.30840696 303.05092098 132.69529545 300.25801058 131.63671875 297.23828125 C131.32992187 296.33335937 131.023125 295.4284375 130.70703125 294.49609375 C124.7045459 278.55846022 115.0127226 267.45717146 99.546875 260.23022461 C74.42296516 249.09815702 49.11906334 253.51456247 29.63671875 273.23828125 Z " fill="#8D8D8D" transform="translate(238.36328125,31.76171875)"/>
<path d="M0 0 C7.7399633 0.47062251 14.86310585 2.0919212 22.3125 4.1875 C23.44099365 4.49921143 24.5694873 4.81092285 25.73217773 5.13208008 C28.04063125 5.77166638 30.34801606 6.41512293 32.65429688 7.0625 C35.78204 7.93892539 38.91365392 8.79965605 42.046875 9.65625 C43.88566206 10.16578194 45.72421746 10.67615088 47.5625 11.1875 C48.3872583 11.41268311 49.2120166 11.63786621 50.06176758 11.86987305 C64.00589288 15.81405623 76.47509344 22.99533597 87 33 C87 33.66 87 34.32 87 35 C88.485 35.495 88.485 35.495 90 36 C91.82421875 38.21484375 91.82421875 38.21484375 93.6875 40.9375 C94.62142578 42.28134766 94.62142578 42.28134766 95.57421875 43.65234375 C97 46 97 46 97 48 C97.66 48 98.32 48 99 48 C100.13565077 50.474747 101.25848108 52.95413152 102.375 55.4375 C102.69210937 56.12521484 103.00921875 56.81292969 103.3359375 57.52148438 C107.89806793 67.73875566 108.40510937 77.48288892 108.375 88.5625 C108.37478851 89.27853394 108.37457703 89.99456787 108.37435913 90.7322998 C108.34274655 101.43862632 107.34029881 110.74051079 104 121 C103.14106621 124.2804556 102.35666816 127.57835859 101.5625 130.875 C99.22749865 140.30263643 96.65165277 149.65715535 94 159 C92.68 159 91.36 159 90 159 C89.65388672 157.07414062 89.65388672 157.07414062 89.30078125 155.109375 C84.97941429 131.03297685 84.97941429 131.03297685 77 108 C76.32808033 106.28085417 75.65657729 104.56153654 74.99121094 102.83984375 C66.30491901 80.54617223 54.7867355 60.80424387 40 42 C39.21753906 40.99195313 38.43507813 39.98390625 37.62890625 38.9453125 C32.83639608 32.91409649 27.64813881 27.52915329 22.08984375 22.21484375 C20 20 20 20 20 18 C19.44054687 17.75894531 18.88109375 17.51789063 18.3046875 17.26953125 C15.51846146 15.73474572 13.45735585 13.84910706 11.125 11.6875 C8.26648719 9.05732993 5.41526701 6.48023615 2.375 4.0625 C1.59125 3.381875 0.8075 2.70125 0 2 C0 1.34 0 0.68 0 0 Z " fill="#8D8D8D" transform="translate(392,61)"/>
<path d="M0 0 C0.99 0.495 0.99 0.495 2 1 C1.61732165 8.90868593 -0.28530716 16.11109482 -2.4765625 23.66796875 C-3.93935704 28.71818478 -5.26963945 33.79918747 -6.59863281 38.88598633 C-11.60600614 57.92132887 -17.14418219 73.46828863 -31 88 C-31.66 88 -32.32 88 -33 88 C-33.495 89.485 -33.495 89.485 -34 91 C-35.70703125 92.5703125 -35.70703125 92.5703125 -37.8125 94.125 C-38.49957031 94.64320313 -39.18664062 95.16140625 -39.89453125 95.6953125 C-41.96720245 96.97967647 -43.61798332 97.56106659 -46 98 C-46 98.66 -46 99.32 -46 100 C-48.4965744 101.13315391 -50.99683772 102.25656579 -53.5 103.375 C-54.19609375 103.69210937 -54.8921875 104.00921875 -55.609375 104.3359375 C-65.74334878 108.83992585 -74.96974955 109.40237489 -85.9375 109.375 C-87.0454039 109.37518127 -87.0454039 109.37518127 -88.1756897 109.37536621 C-99.31666046 109.34934545 -109.35035992 108.47816528 -120 105 C-122.29020185 104.34899132 -124.58186844 103.70311258 -126.875 103.0625 C-127.9784375 102.73894531 -129.081875 102.41539062 -130.21875 102.08203125 C-137.77545807 99.91962615 -145.39348608 97.97866673 -153 96 C-153.33 94.68 -153.66 93.36 -154 92 C-153.36199463 91.87471924 -152.72398926 91.74943848 -152.06665039 91.62036133 C-120.99863921 85.46924661 -87.87740269 76.36575769 -62.03515625 57.14453125 C-59 55 -59 55 -56 55 C-56 54.34 -56 53.68 -56 53 C-54.19921875 51.58984375 -54.19921875 51.58984375 -51.6875 49.9375 C-33.99825839 37.88686009 -18.26202605 22.74364011 -5 6 C-3.98368575 4.76709419 -2.96377314 3.53712845 -1.9375 2.3125 C-0.9784375 1.1678125 -0.9784375 1.1678125 0 0 Z " fill="#8D8D8D" transform="translate(437,391)"/>
<path d="M0 0 C1.11089493 0.00031723 1.11089493 0.00031723 2.24423218 0.00064087 C12.58635435 0.03017899 22.11728716 0.61544143 32.03564453 3.76318359 C35.21870556 4.7240064 38.45095164 5.46757375 41.68334961 6.24267578 C50.25015105 8.30303568 58.68493197 10.63853161 67.0625 13.375 C67.0625 14.365 67.0625 15.355 67.0625 16.375 C66.33361572 16.53057373 65.60473145 16.68614746 64.85375977 16.84643555 C23.94081586 25.62707445 -12.73704253 39.35687645 -45.9375 65.375 C-46.87851563 66.11105469 -47.81953125 66.84710938 -48.7890625 67.60546875 C-53.36749495 71.15411682 -53.36749495 71.15411682 -57.58984375 75.1015625 C-58.9375 76.375 -58.9375 76.375 -60.9375 76.375 C-61.2675 77.365 -61.5975 78.355 -61.9375 79.375 C-63.49609375 80.875 -63.49609375 80.875 -65.375 82.375 C-67.82524632 84.33928932 -69.15130578 85.69570868 -70.9375 88.375 C-71.5975 88.375 -72.2575 88.375 -72.9375 88.375 C-73.18757813 88.93703125 -73.43765625 89.4990625 -73.6953125 90.078125 C-75.13401283 92.73836335 -76.83311943 94.83937565 -78.8125 97.125 C-79.49054688 97.92421875 -80.16859375 98.7234375 -80.8671875 99.546875 C-82.9375 101.375 -82.9375 101.375 -86.9375 101.375 C-84.61629709 90.74291672 -81.90555945 80.21130934 -79.08834839 69.7013855 C-78.70020191 68.24908266 -78.31530256 66.79590758 -77.93386841 65.34182739 C-73.70191943 49.24516269 -67.50902983 32.95142193 -54.9375 21.375 C-54.2775 21.375 -53.6175 21.375 -52.9375 21.375 C-52.4425 19.89 -52.4425 19.89 -51.9375 18.375 C-37.2820427 4.70010675 -19.57180963 -0.05125427 0 0 Z " fill="#8D8D8D" transform="translate(148.9375,-0.37499999999999994)"/>
<path d="M0 0 C0.99 0 1.98 0 3 0 C3.20753906 1.24910156 3.41507813 2.49820312 3.62890625 3.78515625 C6.74681859 21.71097612 11.32102271 39.44359233 19 56 C19.55551477 57.26265719 20.11013502 58.52570816 20.6640625 59.7890625 C27.65772717 75.45782774 36.41349651 90.47774344 47 104 C47.65484375 104.845625 48.3096875 105.69125 48.984375 106.5625 C52.97008825 111.62960831 57.14452845 116.46333833 61.53125 121.1875 C63 123 63 123 63 125 C64.485 125.495 64.485 125.495 66 126 C66 126.66 66 127.32 66 128 C66.99 128.33 67.98 128.66 69 129 C69 129.66 69 130.32 69 131 C69.66 131 70.32 131 71 131 C72.70290122 132.62962664 74.36286683 134.30431414 76 136 C77.88460182 137.76208967 79.78053425 139.51213762 81.6875 141.25 C82.64011719 142.12140625 83.59273438 142.9928125 84.57421875 143.890625 C86.8020154 146.00493863 86.8020154 146.00493863 89 147 C89 148.32 89 149.64 89 151 C80.9640518 149.68386202 73.16237487 147.84199053 65.3125 145.6875 C63.59957764 145.21848267 63.59957764 145.21848267 61.85205078 144.73999023 C58.56589901 143.83414727 55.28272257 142.91817818 52 142 C51.1764502 141.7740918 50.35290039 141.54818359 49.50439453 141.31542969 C33.94576991 137.01692996 19.45012742 130.66698589 8 119 C8 118.34 8 117.68 8 117 C6.515 116.505 6.515 116.505 5 116 C-8.10716814 100.57606848 -13.24452306 83.53407662 -13.3125 63.75 C-13.31511841 63.02758118 -13.31773682 62.30516235 -13.32043457 61.56085205 C-13.32473454 50.51454986 -12.40532886 40.54252497 -9 30 C-8.32913827 27.62618156 -7.66239094 25.25119606 -7 22.875 C-6.67386719 21.76511719 -6.34773437 20.65523438 -6.01171875 19.51171875 C-4.51866206 14.32925556 -3.17913671 9.10876501 -1.83203125 3.88671875 C-1 1 -1 1 0 0 Z " fill="#8D8D8D" transform="translate(13,287)"/>
<path d="M0 0 C0 0.99 0 1.98 0 3 C-2.04725568 4.77211872 -4.06101522 6.36021225 -6.25 7.9375 C-7.42394559 8.79796341 -8.59586652 9.66119674 -9.765625 10.52734375 C-10.32443359 10.94097168 -10.88324219 11.35459961 -11.45898438 11.78076172 C-13.19577643 13.10478526 -13.19577643 13.10478526 -15.296875 15.31640625 C-17 17 -17 17 -19 17 C-19.33 17.99 -19.66 18.98 -20 20 C-21.55859375 21.5 -21.55859375 21.5 -23.4375 23 C-25.88774632 24.96428932 -27.21380578 26.32070868 -29 29 C-29.66 29 -30.32 29 -31 29 C-31.33 29.66 -31.66 30.32 -32 31 C-32.66 30.34 -33.32 29.68 -34 29 C-17.41968912 12.20919689 -17.41968912 12.20919689 -11 7 C-10.2059375 6.35160156 -9.411875 5.70320313 -8.59375 5.03515625 C-2.29232673 0 -2.29232673 0 0 0 Z " fill="#787878" transform="translate(107,59)"/>
<path d="M0 0 C0 0.66 0 1.32 0 2 C-0.66 2 -1.32 2 -2 2 C-2 2.66 -2 3.32 -2 4 C-4.06756361 5.73252775 -6.11917857 7.31541798 -8.3125 8.875 C-8.94389893 9.32536621 -9.57529785 9.77573242 -10.22583008 10.23974609 C-16.15914699 14.33679148 -22.62046571 18 -30 18 C-29.505 16.515 -29.505 16.515 -29 15 C-26.12109375 13.60546875 -26.12109375 13.60546875 -22.4375 12.1875 C-16.57630434 9.83514339 -11.81306248 7.07171399 -7 3 C-3.37762238 0 -3.37762238 0 0 0 Z " fill="#878787" transform="translate(358,389)"/>
<path d="M0 0 C0.66 0.33 1.32 0.66 2 1 C1.01 1.33 0.02 1.66 -1 2 C-1.33 2.99 -1.66 3.98 -2 5 C-4.58897711 6.47732592 -7.12421101 7.79479417 -9.8125 9.0625 C-10.53759766 9.41376953 -11.26269531 9.76503906 -12.00976562 10.12695312 C-13.3686326 10.78462982 -14.72951432 11.43817164 -16.09301758 12.08618164 C-17.44640606 12.73472 -18.78093633 13.42328328 -20.1003418 14.13842773 C-22.47355463 15.21477629 -23.5954819 14.85875646 -26 14 C-21.93479556 11.50313739 -17.77488111 9.2342839 -13.5625 7 C-12.91990234 6.65710938 -12.27730469 6.31421875 -11.61523438 5.9609375 C-10.34987317 5.28779103 -9.082502 4.61840695 -7.81298828 3.953125 C-6.0855015 3.04494989 -4.36860098 2.11672212 -2.65234375 1.1875 C-1.77707031 0.795625 -0.90179688 0.40375 0 0 Z " fill="#757575" transform="translate(358,436)"/>
<path d="M0 0 C0.66 0.33 1.32 0.66 2 1 C1.42520775 6.69044324 0.352825 11.86676586 -1.375 17.3125 C-1.58382813 18.01439453 -1.79265625 18.71628906 -2.0078125 19.43945312 C-3.11055607 22.96621532 -3.99952488 25.71016373 -7 28 C-5.86335749 21.77837783 -4.46319013 15.63586774 -2.9375 9.5 C-2.7631543 8.79359375 -2.58880859 8.0871875 -2.40917969 7.359375 C-1.12381213 2.24762427 -1.12381213 2.24762427 0 0 Z " fill="#7C7C7C" transform="translate(430,419)"/>
<path d="M0 0 C2.80180512 1.29407993 5.00728403 2.70336434 7.3125 4.75 C7.91320312 5.2759375 8.51390625 5.801875 9.1328125 6.34375 C10.37760417 7.44791667 11.62239583 8.55208333 12.8671875 9.65625 C13.46789062 10.1821875 14.06859375 10.708125 14.6875 11.25 C15.22761719 11.72953125 15.76773438 12.2090625 16.32421875 12.703125 C18.12269616 14.09495367 19.93963711 15.0483727 22 16 C22 16.66 22 17.32 22 18 C17.01646084 17.58082381 14.06434142 14.98024757 10.4375 11.8125 C9.87353516 11.34263672 9.30957031 10.87277344 8.72851562 10.38867188 C5.07254854 7.25437495 2.49552 4.11852323 0 0 Z " fill="#797979" transform="translate(103,409)"/>
<path d="M0 0 C2.94789913 2.5035781 4.04322783 5.11724897 5.4375 8.6875 C7.40834545 13.60266911 9.56059218 18.30188124 12 23 C11.34 23.66 10.68 24.32 10 25 C8.70506805 22.60588163 7.41397828 20.2098212 6.125 17.8125 C5.76019531 17.13896484 5.39539062 16.46542969 5.01953125 15.77148438 C-0.33138938 5.79931411 -0.33138938 5.79931411 0 0 Z " fill="#858585" transform="translate(28,337)"/>
<path d="M0 0 C4.07678614 4.07678614 4.12257278 10.09537331 4.1953125 15.59375 C4.18218686 17.56259575 4.15858509 19.53139696 4.125 21.5 C4.11597656 22.51320313 4.10695312 23.52640625 4.09765625 24.5703125 C4.07429007 27.04712801 4.04153168 29.52343379 4 32 C3.34 32 2.68 32 2 32 C1.34 21.44 0.68 10.88 0 0 Z " fill="#7D7D7D" transform="translate(215,296)"/>
<path d="M0 0 C0 0.66 0 1.32 0 2 C-0.85722656 2.44730469 -1.71445313 2.89460938 -2.59765625 3.35546875 C-8.68362346 6.57341534 -14.52431468 9.79772987 -20 14 C-20.66 13.34 -21.32 12.68 -22 12 C-7.37175793 0 -7.37175793 0 0 0 Z " fill="#7B7B7B" transform="translate(136,258)"/>
<path d="M0 0 C2 1 2 1 2.76196289 2.6706543 C3.1137561 3.7366687 3.1137561 3.7366687 3.47265625 4.82421875 C3.73240234 5.60603516 3.99214844 6.38785156 4.25976562 7.19335938 C4.52466797 8.01642578 4.78957031 8.83949219 5.0625 9.6875 C5.33126953 10.49123047 5.60003906 11.29496094 5.87695312 12.12304688 C7.27876448 16.39839672 8.41393993 20.52134345 9 25 C8.34 25.33 7.68 25.66 7 26 C3.40321452 17.91179711 0 8.95232059 0 0 Z " fill="#818181" transform="translate(469,162)"/>
<path d="M0 0 C-2.24151882 2.24151882 -4.0067112 2.96301325 -6.9375 4.125 C-7.81277344 4.47820313 -8.68804687 4.83140625 -9.58984375 5.1953125 C-12 6 -12 6 -15 6 C-15 6.66 -15 7.32 -15 8 C-19.95 9.485 -19.95 9.485 -25 11 C-24.67 10.34 -24.34 9.68 -24 9 C-23.34 9 -22.68 9 -22 9 C-21.67 8.01 -21.34 7.02 -21 6 C-18.78822368 4.78144763 -16.69360418 3.77660133 -14.375 2.8125 C-13.77042969 2.53986328 -13.16585937 2.26722656 -12.54296875 1.98632812 C-8.21932736 0.14716724 -4.66644063 -0.26990981 0 0 Z " fill="#868686" transform="translate(176,46)"/>
<path d="M0 0 C1.18960605 3.41042868 0.85398723 5.08371982 -0.65234375 8.328125 C-1.01650391 9.12734375 -1.38066406 9.9265625 -1.75585938 10.75 C-2.14580078 11.575 -2.53574219 12.4 -2.9375 13.25 C-3.32357422 14.09046875 -3.70964844 14.9309375 -4.10742188 15.796875 C-5.06134987 17.86960742 -6.02576091 19.93675627 -7 22 C-7.99 22 -8.98 22 -10 22 C-7.69767788 14.25582558 -4.25336085 6.85745933 0 0 Z " fill="#888888" transform="translate(451,329)"/>
<path d="M0 0 C0.33 0 0.66 0 1 0 C1.48173829 2.66622447 1.96044625 5.33293671 2.4375 8 C2.57220703 8.74378906 2.70691406 9.48757813 2.84570312 10.25390625 C3.71983371 15.15756564 4.42093462 20.05264526 5 25 C3 24 3 24 1.9296875 21.375 C-2.92307692 5.84615385 -2.92307692 5.84615385 0 0 Z " fill="#848484" transform="translate(95,317)"/>
<path d="M0 0 C3.08524571 0.61579425 6.16778185 1.24424128 9.25 1.875 C10.55904297 2.13603516 10.55904297 2.13603516 11.89453125 2.40234375 C13.16103516 2.66337891 13.16103516 2.66337891 14.453125 2.9296875 C15.61569824 3.16534424 15.61569824 3.16534424 16.80175781 3.40576172 C19.06162086 4.01665761 20.94806161 4.88410522 23 6 C19.76319429 7.04318738 17.54451583 6.92287835 14.234375 6.22265625 C12.90019531 5.94711914 12.90019531 5.94711914 11.5390625 5.66601562 C10.61867187 5.46685547 9.69828125 5.26769531 8.75 5.0625 C7.81414062 4.86720703 6.87828125 4.67191406 5.9140625 4.47070312 C3.60761973 3.98823295 1.303184 3.49775423 -1 3 C-0.67 2.01 -0.34 1.02 0 0 Z " fill="#767676" transform="translate(193,458)"/>
<path d="M0 0 C-0.66 0 -1.32 0 -2 0 C-2 0.66 -2 1.32 -2 2 C-16.59681093 7.55580866 -16.59681093 7.55580866 -24 8 C-21.80629108 5.53207746 -19.99407371 4.40884828 -16.875 3.359375 C-16.08609375 3.09382813 -15.2971875 2.82828125 -14.484375 2.5546875 C-13.25460938 2.15636719 -13.25460938 2.15636719 -12 1.75 C-10.77023438 1.32847656 -10.77023438 1.32847656 -9.515625 0.8984375 C-8.72671875 0.63804688 -7.9378125 0.37765625 -7.125 0.109375 C-6.04605469 -0.24688965 -6.04605469 -0.24688965 -4.9453125 -0.61035156 C-3 -1 -3 -1 0 0 Z " fill="#7B7B7B" transform="translate(183,22)"/>
<path d="M0 0 C0.66 0 1.32 0 2 0 C2.38671875 0.73605469 2.7734375 1.47210938 3.171875 2.23046875 C6.40541575 8.34429655 6.40541575 8.34429655 10.4375 13.9375 C12 16 12 16 11.75 18.3125 C11.37875 19.1478125 11.37875 19.1478125 11 20 C10.34 18.68 9.68 17.36 9 16 C8.34 16 7.68 16 7 16 C5.82558465 13.89983377 4.66035988 11.79541245 3.5 9.6875 C3.16613281 9.09259766 2.83226562 8.49769531 2.48828125 7.88476562 C0.93174886 5.04171156 0 3.29339012 0 0 Z " fill="#7F7F7F" transform="translate(254,369)"/>
<path d="M0 0 C2 0 2 0 4.625 2.375 C7 5 7 5 7 7 C7.5775 7.226875 8.155 7.45375 8.75 7.6875 C11.5663661 9.33038023 13.08077114 11.39533227 15 14 C14.67 14.66 14.34 15.32 14 16 C13.50371094 15.56429687 13.00742187 15.12859375 12.49609375 14.6796875 C8.02180981 10.75726021 3.52435958 6.86455714 -1 3 C-0.67 2.01 -0.34 1.02 0 0 Z " fill="#7E7E7E" transform="translate(379,131)"/>
<path d="M0 0 C0 3 0 3 -2.375 5.6875 C-5 8 -5 8 -7 8 C-7.25523438 8.59296875 -7.51046875 9.1859375 -7.7734375 9.796875 C-9.11816498 12.21224538 -10.49214367 13.51211706 -12.625 15.25 C-13.25664063 15.77078125 -13.88828125 16.2915625 -14.5390625 16.828125 C-15.02117187 17.21484375 -15.50328125 17.6015625 -16 18 C-12.75024072 11.37276165 -8.66244656 5.76906752 -3 1 C-2.01 0.67 -1.02 0.34 0 0 Z " fill="#7B7B7B" transform="translate(103,89)"/>
<path d="M0 0 C1.33333333 0.66666667 2.66666667 1.33333333 4 2 C4.63035156 2.25394531 5.26070313 2.50789063 5.91015625 2.76953125 C8.6215943 4.36598543 9.90368362 6.23157695 11.6875 8.8125 C12.28949219 9.66457031 12.89148438 10.51664063 13.51171875 11.39453125 C15.00128781 14.00225452 15.60192588 16.04363619 16 19 C15.34 19 14.68 19 14 19 C12.96986723 17.35178756 11.97934924 15.67888441 11 14 C7.55469381 9.15068175 3.85113331 4.53074507 0 0 Z " fill="#7C7C7C" transform="translate(474,93)"/>
<path d="M0 0 C1.39276213 4.17828639 1.18424906 8.12424034 1.1875 12.5 C1.19974609 13.36753906 1.21199219 14.23507813 1.22460938 15.12890625 C1.22654297 15.96292969 1.22847656 16.79695313 1.23046875 17.65625 C1.23457764 18.41744141 1.23868652 19.17863281 1.24291992 19.96289062 C1 22 1 22 -1 25 C-1.98043964 22.05868109 -2.11621202 20.17498335 -2.09765625 17.11328125 C-2.09443359 16.17548828 -2.09121094 15.23769531 -2.08789062 14.27148438 C-2.07532227 12.80678711 -2.07532227 12.80678711 -2.0625 11.3125 C-2.05798828 10.32443359 -2.05347656 9.33636719 -2.04882812 8.31835938 C-2.03704303 5.87884526 -2.02059011 3.43945311 -2 1 C-1.34 0.67 -0.68 0.34 0 0 Z " fill="#7A7A7A" transform="translate(283,172)"/>
<path d="M0 0 C0.33 0.99 0.66 1.98 1 3 C-0.07421875 4.796875 -0.07421875 4.796875 -1.6875 6.75 C-3.79981778 9.39528685 -5.60724781 11.94366284 -7.1875 14.9375 C-9 18 -9 18 -12 19 C-11.44410603 14.85673698 -10.12349057 12.31241628 -7.6875 8.9375 C-7.09324219 8.10089844 -6.49898437 7.26429687 -5.88671875 6.40234375 C-4.06312909 4.08038175 -2.13230502 2.03816352 0 0 Z " fill="#6C6C6C" transform="translate(143,109)"/>
<path d="M0 0 C0.5887793 0.20520264 1.17755859 0.41040527 1.78417969 0.62182617 C-0.08928258 2.04056459 -1.96452524 3.45684242 -3.84082031 4.87182617 C-4.88496094 5.66073242 -5.92910156 6.44963867 -7.00488281 7.26245117 C-10.02533925 9.48186198 -13.08125948 11.56977134 -16.21582031 13.62182617 C-16.21582031 12.30182617 -16.21582031 10.98182617 -16.21582031 9.62182617 C-13.99500215 7.63555966 -11.900002 5.98765581 -9.46582031 4.30932617 C-8.51449219 3.60839844 -8.51449219 3.60839844 -7.54394531 2.89331055 C-2.77063919 -0.47286471 -2.77063919 -0.47286471 0 0 Z " fill="#848484" transform="translate(128.2158203125,69.378173828125)"/>
<path d="M0 0 C4.33776139 1.55427984 6.62350894 4.89731752 9.3125 8.4375 C10.01342773 9.31631836 10.01342773 9.31631836 10.72851562 10.21289062 C12.05078125 11.93359375 12.05078125 11.93359375 14 15 C13.67 15.99 13.34 16.98 13 18 C11.894019 16.75160501 10.79029799 15.50120766 9.6875 14.25 C9.07261719 13.55390625 8.45773437 12.8578125 7.82421875 12.140625 C3 6.47965739 3 6.47965739 3 4 C2.01 3.67 1.02 3.34 0 3 C0 2.01 0 1.02 0 0 Z " fill="#787878" transform="translate(353,300)"/>
<path d="M0 0 C0.66 0.66 1.32 1.32 2 2 C0.55041382 4.5054576 -0.90898798 7.00418199 -2.375 9.5 C-2.7875 10.21542969 -3.2 10.93085938 -3.625 11.66796875 C-4.69451438 13.47924311 -5.8419038 15.24404186 -7 17 C-7.66 17 -8.32 17 -9 17 C-7.56591931 10.49593706 -4.3699451 4.99422297 0 0 Z " fill="#7F7F7F" transform="translate(107,278)"/>
<path d="M0 0 C0.99 0 1.98 0 3 0 C5.94033413 5.57765673 8.53012914 10.85326729 10 17 C9.34 17.66 8.68 18.32 8 19 C5.36 12.73 2.72 6.46 0 0 Z " fill="#828282" transform="translate(443,154)"/>
<path d="M0 0 C3.37462715 0.54723683 5.08235 1.0549 8 3 C8 4.32 8 5.64 8 7 C4.37 6.34 0.74 5.68 -3 5 C-3.33 4.01 -3.66 3.02 -4 2 C-2.35 2 -0.7 2 1 2 C0.67 1.34 0.34 0.68 0 0 Z " fill="#6E6E6E" transform="translate(94,431)"/>
<path d="M0 0 C0 4.91818208 -3.71306306 7.58980293 -7 11 C-9.6875 13.5625 -9.6875 13.5625 -12 15 C-14.14453125 14.58984375 -14.14453125 14.58984375 -16 14 C-14.64455078 12.86111328 -14.64455078 12.86111328 -13.26171875 11.69921875 C-12.07025187 10.69538445 -10.87884898 9.69147422 -9.6875 8.6875 C-8.79514648 7.93823242 -8.79514648 7.93823242 -7.88476562 7.17382812 C-7.30791016 6.68720703 -6.73105469 6.20058594 -6.13671875 5.69921875 C-5.60780029 5.25408936 -5.07888184 4.80895996 -4.53393555 4.3503418 C-2.95471373 2.96013395 -1.47187013 1.50273504 0 0 Z " fill="#7C7C7C" transform="translate(396,408)"/>
<path d="M0 0 C0.66 0 1.32 0 2 0 C2.22535058 6.0844657 2.01810029 12.19391467 0 18 C-0.99 18.66 -1.98 19.32 -3 20 C-2.33644956 13.25390382 -1.28134207 6.65551466 0 0 Z " fill="#757575" transform="translate(464,277)"/>
<path d="M0 0 C0.99 0 1.98 0 3 0 C3.32613281 0.68707031 3.65226563 1.37414062 3.98828125 2.08203125 C4.42527344 2.98308594 4.86226562 3.88414062 5.3125 4.8125 C5.74175781 5.70582031 6.17101562 6.59914063 6.61328125 7.51953125 C7.85199711 10.00823405 7.85199711 10.00823405 9.66796875 11.63671875 C11 13 11 13 11 16 C10.34 16 9.68 16 9 16 C5.08917839 11.88334568 0 5.97478964 0 0 Z " fill="#7B7B7B" transform="translate(221,258)"/>
<path d="M0 0 C0.66 0.33 1.32 0.66 2 1 C2 7.6 2 14.2 2 21 C1.01 21 0.02 21 -1 21 C-0.67 14.07 -0.34 7.14 0 0 Z " fill="#6F6F6F" transform="translate(466,246)"/>
<path d="M0 0 C1.9192037 5.90122497 -1.57823866 11.24420215 -4.1875 16.5 C-4.785625 17.655 -5.38375 18.81 -6 20 C-7.55292947 16.89414105 -6.16913796 14.79212673 -5.125 11.5625 C-4.75632813 10.40878906 -4.38765625 9.25507813 -4.0078125 8.06640625 C-3.34275578 6.04288095 -2.67356923 4.02070769 -2 2 C-1.34 2 -0.68 2 0 2 C0 1.34 0 0.68 0 0 Z " fill="#7F7F7F" transform="translate(217,329)"/>
<path d="M0 0 C6.30367803 0.58367389 11.98660063 2.04071619 18 4 C17.67 4.66 17.34 5.32 17 6 C11.50546433 5.41129975 6.28050604 4.66752822 1 3 C0.67 2.01 0.34 1.02 0 0 Z " fill="#777777" transform="translate(71,428)"/>
<path d="M0 0 C0.67095703 0.58007812 0.67095703 0.58007812 1.35546875 1.171875 C4.8521026 4.18390075 8.37407463 7.14321031 12 10 C11.67 10.99 11.34 11.98 11 13 C7.27382578 11.75794193 5.60708543 9.8889325 3 7 C3 6.34 3 5.68 3 5 C1.68 4.34 0.36 3.68 -1 3 C-0.67 2.01 -0.34 1.02 0 0 Z " fill="#7E7E7E" transform="translate(111,357)"/>
<path d="M0 0 C-1.30016761 3.90050282 -2.76003913 4.31143857 -6.3125 6.25 C-7.76076172 7.06210938 -7.76076172 7.06210938 -9.23828125 7.890625 C-12.13699811 9.05503177 -13.16529977 9.15811981 -16 8 C-14.20909242 6.8529806 -12.41725003 5.70742065 -10.625 4.5625 C-9.12839844 3.60537109 -9.12839844 3.60537109 -7.6015625 2.62890625 C-3.4028777 0 -3.4028777 0 0 0 Z " fill="#949494" transform="translate(118,6)"/>
<path d="M0 0 C3.98103298 4.77723958 7.46719209 9.88933687 11 15 C10.01 15.33 9.02 15.66 8 16 C6.65216541 14.28211261 5.32220557 12.5501903 4 10.8125 C3.2575 9.84957031 2.515 8.88664062 1.75 7.89453125 C-0.07943499 4.86861311 -0.40394708 3.45248521 0 0 Z " fill="#808080" transform="translate(64,361)"/>
<path d="M0 0 C0.66 0 1.32 0 2 0 C1.34 5.94 0.68 11.88 0 18 C-0.66 18 -1.32 18 -2 18 C-2.054138 15.75026553 -2.09285491 13.50015617 -2.125 11.25 C-2.14820313 9.99703125 -2.17140625 8.7440625 -2.1953125 7.453125 C-2.01537302 4.27179508 -1.68998582 2.63478104 0 0 Z " fill="#737373" transform="translate(251,332)"/>
<path d="M0 0 C3.45201639 1.47721422 5.64961936 3.43794001 8.25 6.125 C8.95640625 6.84945312 9.6628125 7.57390625 10.390625 8.3203125 C11.18726563 9.15175781 11.18726563 9.15175781 12 10 C11.67 10.66 11.34 11.32 11 12 C7.4781747 10.04343039 4.65557215 8.04899025 2 5 C2 4.34 2 3.68 2 3 C1.01 2.67 0.02 2.34 -1 2 C-0.67 1.34 -0.34 0.68 0 0 Z " fill="#5D5D5D" transform="translate(410,76)"/>
<path d="M0 0 C0 0.66 0 1.32 0 2 C-0.85464844 2.42152344 -1.70929688 2.84304687 -2.58984375 3.27734375 C-3.69457031 3.82519531 -4.79929688 4.37304688 -5.9375 4.9375 C-7.59072266 5.75541016 -7.59072266 5.75541016 -9.27734375 6.58984375 C-11.84794414 7.74704978 -11.84794414 7.74704978 -13 9 C-14.66617115 9.04063832 -16.33388095 9.042721 -18 9 C-13.25306871 4.72776184 -6.56573109 0 0 0 Z " fill="#808080" transform="translate(144,37)"/>
<path d="M0 0 C0.66 0.33 1.32 0.66 2 1 C-2.14010271 5.54075781 -6.82390176 8.71842138 -12 12 C-11.71855013 8.79580145 -10.99711793 7.99753608 -8.49609375 5.859375 C-7.48675781 5.16328125 -6.47742188 4.4671875 -5.4375 3.75 C-4.42558594 3.04359375 -3.41367188 2.3371875 -2.37109375 1.609375 C-1.58863281 1.07828125 -0.80617188 0.5471875 0 0 Z " fill="#818181" transform="translate(119,49)"/>
<path d="M0 0 C5.44567686 1.02862785 10.11817117 2.24614784 15 5 C15 5.33 15 5.66 15 6 C9.33557626 5.63495936 4.99296295 4.9445679 0 2 C0 1.34 0 0.68 0 0 Z " fill="#747474" transform="translate(170,451)"/>
<path d="M0 0 C5.47932789 1.54545146 10.11429181 4.15543212 15 7 C15 7.33 15 7.66 15 8 C9.22621075 7.5188509 5.04140164 5.81532819 0 3 C0 2.01 0 1.02 0 0 Z " fill="#808080" transform="translate(143,438)"/>
<path d="M0 0 C0.66 0.33 1.32 0.66 2 1 C2 1.66 2 2.32 2 3 C-0.30078125 4.76171875 -0.30078125 4.76171875 -3.3125 6.6875 C-4.29863281 7.33074219 -5.28476562 7.97398437 -6.30078125 8.63671875 C-7.19152344 9.08660156 -8.08226562 9.53648437 -9 10 C-9.99 9.67 -10.98 9.34 -12 9 C-9.82575883 6.49962266 -8.26954202 5.56371414 -5 5 C-5 4.34 -5 3.68 -5 3 C-2.625 1.3125 -2.625 1.3125 0 0 Z " fill="#737373" transform="translate(374,426)"/>
<path d="M0 0 C5.00099548 2.65848126 9.7045025 5.25876024 14 9 C11 10 11 10 8.30078125 8.671875 C7.31464844 8.03765625 6.32851562 7.4034375 5.3125 6.75 C4.31863281 6.12609375 3.32476562 5.5021875 2.30078125 4.859375 C1.54152344 4.24578125 0.78226562 3.6321875 0 3 C0 2.01 0 1.02 0 0 Z " fill="#7C7C7C" transform="translate(126,427)"/>
<path d="M0 0 C0.66 0.33 1.32 0.66 2 1 C2 1.66 2 2.32 2 3 C-0.08203125 4.98046875 -0.08203125 4.98046875 -2.8125 7.1875 C-3.70582031 7.92355469 -4.59914063 8.65960938 -5.51953125 9.41796875 C-6.33808594 9.94003906 -7.15664063 10.46210938 -8 11 C-8.99 10.67 -9.98 10.34 -11 10 C-7.50640535 6.40365256 -3.88901869 3.16548033 0 0 Z " fill="#848484" transform="translate(385,226)"/>
<path d="M0 0 C0.99 0.33 1.98 0.66 3 1 C1.40207236 2.65189143 -0.20355876 4.2963339 -1.8125 5.9375 C-2.70582031 6.85402344 -3.59914062 7.77054688 -4.51953125 8.71484375 C-7 11 -7 11 -10 12 C-8.69041436 6.59795923 -4.56696036 2.91200245 0 0 Z " fill="#7B7B7B" transform="translate(233,193)"/>
<path d="M0 0 C3.15140423 0.34069235 4.60781561 0.58076841 6.8125 2.9375 C8 5 8 5 8 7 C8.66 7 9.32 7 10 7 C10.66 8.65 11.32 10.3 12 12 C9.1512609 11.64154938 8.11952408 11.12645301 6.11328125 9.00390625 C5.51902344 8.19824219 4.92476562 7.39257812 4.3125 6.5625 C3.71050781 5.75941406 3.10851562 4.95632812 2.48828125 4.12890625 C1 2 1 2 0 0 Z " fill="#8A8A8A" transform="translate(229,108)"/>
<path d="M0 0 C-0.99 0.66 -1.98 1.32 -3 2 C-2.34 2.66 -1.68 3.32 -1 4 C-3.91482778 4.80967438 -5.46113217 5.21845993 -8.3125 4.0625 C-8.869375 3.711875 -9.42625 3.36125 -10 3 C-10 2.01 -10 1.02 -10 0 C-6.30581799 -1.231394 -3.7943739 -0.64432764 0 0 Z " fill="#696969" transform="translate(293,483)"/>
<path d="M0 0 C0.66 0.33 1.32 0.66 2 1 C2.125 3.875 2.125 3.875 2 7 C1.34 7.66 0.68 8.32 0 9 C-0.66 8.34 -1.32 7.68 -2 7 C-2.99 7.99 -3.98 8.98 -5 10 C-3.14285714 2.42857143 -3.14285714 2.42857143 0 0 Z " fill="#636363" transform="translate(437,391)"/>
<path d="M0 0 C4.42857143 5.14285714 4.42857143 5.14285714 5 9 C5.66 9 6.32 9 7 9 C7.33 10.65 7.66 12.3 8 14 C4.11943925 12.53751886 2.95866522 10.68145519 1.1875 7 C0.74792969 6.113125 0.30835938 5.22625 -0.14453125 4.3125 C-0.42683594 3.549375 -0.70914062 2.78625 -1 2 C-0.67 1.34 -0.34 0.68 0 0 Z " fill="#868686" transform="translate(449,122)"/>
<path d="M0 0 C0.66 0.33 1.32 0.66 2 1 C0.59155282 4.21524305 -1.10344786 6.32183868 -3.625 8.75 C-4.57246094 9.67039062 -4.57246094 9.67039062 -5.5390625 10.609375 C-6.02117187 11.06828125 -6.50328125 11.5271875 -7 12 C-7.66 11.34 -8.32 10.68 -9 10 C-6.03 6.7 -3.06 3.4 0 0 Z " fill="#777777" transform="translate(411,393)"/>
<path d="M0 0 C0.66 0.33 1.32 0.66 2 1 C-5.11389522 9.81548975 -5.11389522 9.81548975 -10 11 C-8.55218207 7.55571735 -6.72305391 5.63869038 -3.875 3.25 C-3.15054687 2.63640625 -2.42609375 2.0228125 -1.6796875 1.390625 C-0.84824219 0.70226562 -0.84824219 0.70226562 0 0 Z " fill="#737373" transform="translate(275,295)"/>
<path d="M0 0 C0.66 0.33 1.32 0.66 2 1 C1.69147815 2.958964 1.3780582 4.91715713 1.0625 6.875 C0.88847656 7.96554688 0.71445312 9.05609375 0.53515625 10.1796875 C0 13 0 13 -1 15 C-1.66 15 -2.32 15 -3 15 C-3.36263859 9.1977825 -2.25684543 5.36000789 0 0 Z " fill="#808080" transform="translate(37,204)"/>
<path d="M0 0 C0.66 0 1.32 0 2 0 C1.65986985 5.44208234 -1.70296528 8.93668198 -5 13 C-5.66 12.67 -6.32 12.34 -7 12 C-6.20994338 10.56161448 -5.41788955 9.12432585 -4.625 7.6875 C-4.18414062 6.88699219 -3.74328125 6.08648437 -3.2890625 5.26171875 C-2.26486665 3.46472057 -1.14732862 1.72099292 0 0 Z " fill="#7B7B7B" transform="translate(437,357)"/>
<path d="M0 0 C0.66 0 1.32 0 2 0 C1.48594831 4.96916636 0.76615118 9.29026351 -1 14 C-1.66 13.67 -2.32 13.34 -3 13 C-2.45144652 8.428721 -1.58255197 4.32564205 0 0 Z " fill="#818181" transform="translate(40,189)"/>
<path d="M0 0 C0 0.66 0 1.32 0 2 C1.65 2 3.3 2 5 2 C5 1.34 5 0.68 5 0 C6.32 0.33 7.64 0.66 9 1 C8.67 1.66 8.34 2.32 8 3 C3.05 3 -1.9 3 -7 3 C-7.33 2.34 -7.66 1.68 -8 1 C-5.10765685 0.17361624 -3.11257569 0 0 0 Z " fill="#7E7E7E" transform="translate(341,120)"/>
<path d="M0 0 C1.32435978 3.97307934 0.18129186 6.80974568 -0.9375 10.6875 C-1.13279297 11.38939453 -1.32808594 12.09128906 -1.52929688 12.81445312 C-2.01199136 14.54508944 -2.50500846 16.27284066 -3 18 C-3.33 18 -3.66 18 -4 18 C-4.20413361 12.26157749 -4.27141454 7.39460953 -2 2 C-1.34 2 -0.68 2 0 2 C0 1.34 0 0.68 0 0 Z " fill="#7C7C7C" transform="translate(73,64)"/>
<path d="M0 0 C1.32 0.33 2.64 0.66 4 1 C3.59007813 1.47050781 3.18015625 1.94101562 2.7578125 2.42578125 C1.94957031 3.35970703 1.94957031 3.35970703 1.125 4.3125 C0.59132813 4.92738281 0.05765625 5.54226562 -0.4921875 6.17578125 C-2.1640447 8.13498212 -2.1640447 8.13498212 -4 11 C-4.99 11 -5.98 11 -7 11 C-5.22054913 6.95579349 -2.60470327 3.53921513 0 0 Z " fill="#7D7D7D" transform="translate(91,24)"/>
<path d="M0 0 C2.31 0.66 4.62 1.32 7 2 C7 2.99 7 3.98 7 5 C2.545 5.495 2.545 5.495 -2 6 C-2.33 5.34 -2.66 4.68 -3 4 C-2.01 3.67 -1.02 3.34 0 3 C0 2.01 0 1.02 0 0 Z " fill="#6F6F6F" transform="translate(209,11)"/>
<path d="M0 0 C0.99 0.33 1.98 0.66 3 1 C3 1.66 3 2.32 3 3 C3.99 3.33 4.98 3.66 6 4 C6.94921875 6.06640625 6.94921875 6.06640625 7.6875 8.5625 C7.93886719 9.38878906 8.19023437 10.21507812 8.44921875 11.06640625 C8.63097656 11.70449219 8.81273437 12.34257812 9 13 C8.01 13.33 7.02 13.66 6 14 C5.47599609 12.73542969 5.47599609 12.73542969 4.94140625 11.4453125 C4.48636719 10.34960938 4.03132813 9.25390625 3.5625 8.125 C3.11003906 7.03445313 2.65757812 5.94390625 2.19140625 4.8203125 C1.50456537 3.19441376 0.78934113 1.57868226 0 0 Z " fill="#848484" transform="translate(363,315)"/>
<path d="M0 0 C3.78080393 1.26026798 4.77295425 2.93546534 7.1875 6.0625 C7.90292969 6.98160156 8.61835938 7.90070313 9.35546875 8.84765625 C10.16951172 9.91306641 10.16951172 9.91306641 11 11 C10.01 11.33 9.02 11.66 8 12 C7.608125 11.443125 7.21625 10.88625 6.8125 10.3125 C4.97262581 7.85082183 4.97262581 7.85082183 2.3125 5.4375 C0 3 0 3 0 0 Z " fill="#939393" transform="translate(410,103)"/>
<path d="M0 0 C5.39286575 0.43142926 8.80486318 1.52110606 13 5 C13 5.99 13 6.98 13 8 C10.03216871 6.54331217 7.13584687 4.98767914 4.25 3.375 C3.45078125 2.92898437 2.6515625 2.48296875 1.828125 2.0234375 C1.22484375 1.68570313 0.6215625 1.34796875 0 1 C0 0.67 0 0.34 0 0 Z " fill="#7D7D7D" transform="translate(355,61)"/>
<path d="M0 0 C1.41750563 0.11509661 2.83401169 0.24253658 4.25 0.375 C5.03890625 0.44460938 5.8278125 0.51421875 6.640625 0.5859375 C9.085877 1.01507113 10.84836903 1.78600638 13 3 C13 3.66 13 4.32 13 5 C11.20767663 4.69128878 9.41615679 4.37790936 7.625 4.0625 C6.62726563 3.88847656 5.62953125 3.71445312 4.6015625 3.53515625 C2 3 2 3 0 2 C0 1.34 0 0.68 0 0 Z " fill="#797979" transform="translate(304,490)"/>
<path d="M0 0 C2.13684525 3.20526787 3.51313036 6.40428278 5 9.94140625 C5.93625996 12.15430604 5.93625996 12.15430604 8 14 C7.01 14.33 6.02 14.66 5 15 C5 14.34 5 13.68 5 13 C4.34 13 3.68 13 3 13 C0.33409063 8.44573816 -0.31563182 5.26053037 0 0 Z " fill="#7F7F7F" transform="translate(46,324)"/>
<path d="M0 0 C-1.27192363 2.54384726 -2.19948469 2.69368156 -4.8125 3.6875 C-5.49957031 3.95949219 -6.18664062 4.23148438 -6.89453125 4.51171875 C-9.29376496 5.06812731 -10.6894364 4.77364938 -13 4 C-4.97080292 -1.65693431 -4.97080292 -1.65693431 0 0 Z " fill="#7E7E7E" transform="translate(246,224)"/>
<path d="M0 0 C2.78752362 1.39376181 3.30431115 3.17508558 4.6875 5.9375 C5.14511719 6.83339844 5.60273437 7.72929687 6.07421875 8.65234375 C6.37972656 9.42707031 6.68523438 10.20179688 7 11 C6.67 11.66 6.34 12.32 6 13 C2.42016341 9.65881918 0.10283266 7.26231859 -0.125 2.25 C-0.063125 1.13625 -0.063125 1.13625 0 0 Z " fill="#828282" transform="translate(55,345)"/>
<path d="M0 0 C0.66 0.99 1.32 1.98 2 3 C1.3203125 5.48046875 1.3203125 5.48046875 0.125 8.1875 C-0.26429688 9.08855469 -0.65359375 9.98960937 -1.0546875 10.91796875 C-1.36664063 11.60503906 -1.67859375 12.29210937 -2 13 C-2.66 13 -3.32 13 -4 13 C-3.71517632 11.58194169 -3.42181856 10.16559621 -3.125 8.75 C-2.96257812 7.96109375 -2.80015625 7.1721875 -2.6328125 6.359375 C-2.00849925 4.03168856 -1.15161458 2.10968048 0 0 Z " fill="#818181" transform="translate(255,319)"/>
<path d="M0 0 C3.79235994 1.48985569 5.80565887 3.58658047 8 7 C7.60546875 9.1640625 7.60546875 9.1640625 7 11 C6.01216806 9.92456217 5.03506057 8.83926783 4.0625 7.75 C3.51722656 7.14671875 2.97195313 6.5434375 2.41015625 5.921875 C0.93787201 3.91532695 0.42470811 2.42997551 0 0 Z " fill="#808080" transform="translate(290,215)"/>
<path d="M0 0 C0.66 0 1.32 0 2 0 C0.44298069 4.67105792 -2.08447373 8.08705685 -5 12 C-5.66 11.67 -6.32 11.34 -7 11 C-5.08477773 6.88227212 -3.06974516 3.36681727 0 0 Z " fill="#7E7E7E" transform="translate(396,213)"/>
<path d="M0 0 C0.33 0.66 0.66 1.32 1 2 C1.66 2 2.32 2 3 2 C3.98248524 6.0527516 4.08159574 9.83861737 4 14 C1.3184721 10.92307254 0.57912193 8.80265337 0.3125 4.75 C0.24675781 3.85796875 0.18101562 2.9659375 0.11328125 2.046875 C0.07589844 1.37140625 0.03851563 0.6959375 0 0 Z " fill="#797979" transform="translate(250,355)"/>
<path d="M0 0 C2.87579981 4.31369972 4 7.80734761 4 13 C3.34 13 2.68 13 2 13 C1.46605821 11.5882217 0.94834896 10.17029756 0.4375 8.75 C0.14746094 7.96109375 -0.14257812 7.1721875 -0.44140625 6.359375 C-1.04522837 3.80896548 -0.8473932 2.44677771 0 0 Z " fill="#868686" transform="translate(41,309)"/>
<path d="M0 0 C3.25914951 3.08297927 6.06553673 5.9161331 8 10 C7.67 10.99 7.34 11.98 7 13 C7 12.34 7 11.68 7 11 C6.01 10.67 5.02 10.34 4 10 C2.83203125 8.4765625 2.83203125 8.4765625 1.8125 6.625 C1.46832031 6.01914062 1.12414062 5.41328125 0.76953125 4.7890625 C0 3 0 3 0 0 Z " fill="#7C7C7C" transform="translate(205,278)"/>
<path d="M0 0 C-0.66 0 -1.32 0 -2 0 C-2 0.66 -2 1.32 -2 2 C-5.3 3.32 -8.6 4.64 -12 6 C-12.66 5.34 -13.32 4.68 -14 4 C-12.23494565 3.13395466 -10.46271926 2.28251358 -8.6875 1.4375 C-7.70136719 0.96183594 -6.71523437 0.48617187 -5.69921875 -0.00390625 C-3 -1 -3 -1 0 0 Z " fill="#727272" transform="translate(171,94)"/>
<path d="M0 0 C1.09570312 0.28746094 2.19140625 0.57492188 3.3203125 0.87109375 C4.16335938 1.09925781 5.00640625 1.32742187 5.875 1.5625 C4.885 3.0475 4.885 3.0475 3.875 4.5625 C2.885 4.2325 1.895 3.9025 0.875 3.5625 C-0.68408654 3.19359697 -2.24693041 2.84034121 -3.8125 2.5 C-4.62074219 2.32339844 -5.42898438 2.14679688 -6.26171875 1.96484375 C-6.87660156 1.83207031 -7.49148438 1.69929688 -8.125 1.5625 C-8.125 0.9025 -8.125 0.2425 -8.125 -0.4375 C-5.13816063 -1.93091969 -3.17339022 -0.84398676 0 0 Z " fill="#828282" transform="translate(429.125,69.4375)"/>
<path d="M0 0 C0.93045933 2.55144824 1.08564091 3.74006478 0.22265625 6.359375 C-0.16019531 7.14828125 -0.54304688 7.9371875 -0.9375 8.75 C-1.50791016 9.94882813 -1.50791016 9.94882813 -2.08984375 11.171875 C-2.39019531 11.77515625 -2.69054687 12.3784375 -3 13 C-3.33 13 -3.66 13 -4 13 C-4.34837335 8.12277312 -3.45094389 5.21562348 -1 1 C-0.67 0.67 -0.34 0.34 0 0 Z " fill="#7F7F7F" transform="translate(403,198)"/>
<path d="M0 0 C0.99 0 1.98 0 3 0 C2.00956295 4.83628305 1.04301154 9.47618873 -1 14 C-2.15837573 10.52487282 -1.77265943 8.86329714 -1.0625 5.3125 C-0.86785156 4.31863281 -0.67320312 3.32476562 -0.47265625 2.30078125 C-0.31667969 1.54152344 -0.16070312 0.78226563 0 0 Z " fill="#7B7B7B" transform="translate(247,164)"/>
<path d="M0 0 C-0.33 1.32 -0.66 2.64 -1 4 C-1.66 4 -2.32 4 -3 4 C-3.33 4.99 -3.66 5.98 -4 7 C-7.0625 8.6875 -7.0625 8.6875 -10 10 C-8.50006099 6.10015857 -4.53875449 0 0 0 Z " fill="#828282" transform="translate(304,135)"/>
<path d="M0 0 C-0.125 1.875 -0.125 1.875 -1 4 C-4 5.125 -4 5.125 -7 6 C-7.33 6.66 -7.66 7.32 -8 8 C-8.66 7.34 -9.32 6.68 -10 6 C-8.71283353 4.99421411 -7.42011342 3.99553202 -6.125 3 C-5.40570313 2.443125 -4.68640625 1.88625 -3.9453125 1.3125 C-2 0 -2 0 0 0 Z " fill="#777777" transform="translate(398,483)"/>
<path d="M0 0 C0.99 0 1.98 0 3 0 C1.6302836 3.99500618 -0.25722422 6.80009492 -3 10 C-3.66 9.67 -4.32 9.34 -5 9 C-3.35 6.03 -1.7 3.06 0 0 Z " fill="#7E7E7E" transform="translate(363,378)"/>
<path d="M0 0 C1.8125 0.5 1.8125 0.5 4 2 C5.26152609 4.5863924 6.15643045 7.25200829 7 10 C6.01 10 5.02 10 4 10 C3.32845067 8.71086513 2.66291141 7.41859796 2 6.125 C1.62875 5.40570313 1.2575 4.68640625 0.875 3.9453125 C0 2 0 2 0 0 Z " fill="#686868" transform="translate(33,351)"/>
<path d="M0 0 C1.38609004 3.15020465 0.89180331 4.31918022 -0.25 7.6875 C-2 11 -2 11 -5 12 C-4.54965877 10.37276701 -4.08944646 8.74826336 -3.625 7.125 C-3.36976563 6.22007812 -3.11453125 5.31515625 -2.8515625 4.3828125 C-2 2 -2 2 0 0 Z " fill="#7D7D7D" transform="translate(451,329)"/>
<path d="M0 0 C2.34163518 3.51245277 2.08226125 4.88693772 2 9 C2.291224 10.67453799 2.61070799 12.34550895 3 14 C2.67 13.34 2.34 12.68 2 12 C1.34 12 0.68 12 0 12 C-0.19477739 10.37585622 -0.38059458 8.75063577 -0.5625 7.125 C-0.66691406 6.22007812 -0.77132812 5.31515625 -0.87890625 4.3828125 C-1 2 -1 2 0 0 Z " fill="#808080" transform="translate(36,286)"/>
<path d="M0 0 C1.63001953 0.01353516 1.63001953 0.01353516 3.29296875 0.02734375 C4.12441406 0.03894531 4.95585937 0.05054688 5.8125 0.0625 C2.69339144 1.85525866 0.13567572 2.40540718 -3.4375 2.6875 C-4.32953125 2.76226562 -5.2215625 2.83703125 -6.140625 2.9140625 C-7.15382813 2.98753906 -7.15382813 2.98753906 -8.1875 3.0625 C-8.5175 2.4025 -8.8475 1.7425 -9.1875 1.0625 C-5.90230525 -0.03256492 -3.45086585 -0.03710608 0 0 Z " fill="#7A7A7A" transform="translate(307.1875,283.9375)"/>
<path d="M0 0 C1.23593891 3.70781672 0.5678132 4.67510253 -0.9375 8.1875 C-1.31777344 9.08855469 -1.69804687 9.98960937 -2.08984375 10.91796875 C-2.54037109 11.94857422 -2.54037109 11.94857422 -3 13 C-3.66 13 -4.32 13 -5 13 C-3.125 5.375 -3.125 5.375 -2 2 C-1.34 2 -0.68 2 0 2 C0 1.34 0 0.68 0 0 Z " fill="#848484" transform="translate(132,126)"/>
<path d="M0 0 C2.8125 -0.25 2.8125 -0.25 6 0 C7.875 2 7.875 2 9 4 C8 5 8 5 5.625 5.25 C3 5 3 5 1.1875 3.625 C0 2 0 2 0 0 Z " fill="#6B6B6B" transform="translate(392,61)"/>
<path d="M0 0 C3.96 0 7.92 0 12 0 C11.67 0.99 11.34 1.98 11 3 C7.37 2.67 3.74 2.34 0 2 C0 1.34 0 0.68 0 0 Z " fill="#676767" transform="translate(226,465)"/>
<path d="M0 0 C-2.53199972 2.53199972 -4.54559335 3.11946497 -8 4 C-10.875 3.625 -10.875 3.625 -13 3 C-8.54370064 0.02913376 -5.32064558 -0.12092376 0 0 Z " fill="#7D7D7D" transform="translate(368,240)"/>
<path d="M0 0 C2.74792483 3.40219265 6 7.48464588 6 12 C3 11 3 11 1.796875 9.00390625 C1.45140625 8.19824219 1.1059375 7.39257812 0.75 6.5625 C0.39421875 5.75941406 0.0384375 4.95632812 -0.328125 4.12890625 C-1 2 -1 2 0 0 Z " fill="#7E7E7E" transform="translate(458,138)"/>
<path d="M0 0 C-0.99 1.485 -0.99 1.485 -2 3 C-9.14893617 3.56737589 -9.14893617 3.56737589 -13 1 C-8.59085217 -0.10228696 -4.51617599 -0.07654536 0 0 Z " fill="#727272" transform="translate(191,90)"/>
<path d="M0 0 C6.75 3.75 6.75 3.75 9 6 C8.67 6.99 8.34 7.98 8 9 C6.53515625 7.73046875 5.0703125 6.4609375 3.60546875 5.19140625 C1.89287029 3.79128769 1.89287029 3.79128769 -1 3 C-0.67 2.01 -0.34 1.02 0 0 Z " fill="#7C7C7C" transform="translate(464,83)"/>
<path d="M0 0 C4.40114397 0.50298788 6.71195019 2.08772731 10 5 C9.67 5.99 9.34 6.98 9 8 C6.96166576 6.7260411 4.96147874 5.38938077 3 4 C3 3.34 3 2.68 3 2 C2.01 1.67 1.02 1.34 0 1 C0 0.67 0 0.34 0 0 Z " fill="#7E7E7E" transform="translate(377,75)"/>
<path d="M0 0 C1.32 0.33 2.64 0.66 4 1 C1.69 3.31 -0.62 5.62 -3 8 C-3.33 6.68 -3.66 5.36 -4 4 C-2.3125 1.6875 -2.3125 1.6875 0 0 Z " fill="#686868" transform="translate(416,415)"/>
<path d="M0 0 C1.31625194 2.63250388 0.74813658 3.80179056 0.0625 6.625 C-0.13214844 7.44226563 -0.32679687 8.25953125 -0.52734375 9.1015625 C-0.68332031 9.72804688 -0.83929688 10.35453125 -1 11 C-1.99 10.67 -2.98 10.34 -4 10 C-2.25 2.25 -2.25 2.25 0 0 Z " fill="#838383" transform="translate(9,306)"/>
<path d="M0 0 C0.33 0.66 0.66 1.32 1 2 C0.24172908 3.17487036 -0.53207755 4.33972592 -1.3125 5.5 C-1.74175781 6.1496875 -2.17101562 6.799375 -2.61328125 7.46875 C-3.07089844 7.9740625 -3.52851563 8.479375 -4 9 C-4.99 9 -5.98 9 -7 9 C-5.44499019 5.18315774 -2.96404505 2.80804268 0 0 Z " fill="#868686" transform="translate(241,184)"/>
<path d="M0 0 C0.99 0.33 1.98 0.66 3 1 C3 4.3 3 7.6 3 11 C2.01 11.495 2.01 11.495 1 12 C0.67 8.04 0.34 4.08 0 0 Z " fill="#7F7F7F" transform="translate(403,171)"/>
<path d="M0 0 C0.66 0 1.32 0 2 0 C1.39301257 4.12751449 -0.03810791 7.3321148 -2 11 C-2.33 11 -2.66 11 -3 11 C-3.3227506 6.37390802 -2.84450614 3.71973879 0 0 Z " fill="#7E7E7E" transform="translate(52,158)"/>
<path d="M0 0 C0.99 1.32 1.98 2.64 3 4 C2.01 5.485 2.01 5.485 1 7 C-0.32 7 -1.64 7 -3 7 C-2.625 4.0625 -2.625 4.0625 -2 1 C-1.34 0.67 -0.68 0.34 0 0 Z " fill="#5E5E5E" transform="translate(65,94)"/>
<path d="M0 0 C0 3 0 3 -2.5 5.6875 C-3.325 6.450625 -4.15 7.21375 -5 8 C-5.99 7.67 -6.98 7.34 -8 7 C-3.375 1.125 -3.375 1.125 0 0 Z " fill="#757575" transform="translate(103,89)"/>
<path d="M0 0 C-0.66 0 -1.32 0 -2 0 C-2.33 0.99 -2.66 1.98 -3 3 C-6.5625 4.1875 -6.5625 4.1875 -10 5 C-10 4.01 -10 3.02 -10 2 C-3.375 -1.125 -3.375 -1.125 0 0 Z " fill="#737373" transform="translate(158,31)"/>
<path d="M0 0 C0.33 0 0.66 0 1 0 C1.19622241 4.21878192 0.80230168 7.17010894 -1 11 C-1.99 11 -2.98 11 -4 11 C-3.52269162 9.5410574 -3.04308958 8.08286504 -2.5625 6.625 C-2.29566406 5.81289063 -2.02882813 5.00078125 -1.75390625 4.1640625 C-1 2 -1 2 0 0 Z " fill="#767676" transform="translate(422,448)"/>
<path d="M0 0 C3.77727089 1.81309003 7.37269822 3.9073259 11 6 C11 6.33 11 6.66 11 7 C8.8125 7.3125 8.8125 7.3125 6 7 C3.48103932 4.82453396 1.4949015 2.989803 0 0 Z " fill="#7A7A7A" transform="translate(32,412)"/>
<path d="M0 0 C2.30142435 1.78174788 3.80034391 3.16304165 4.48828125 6.046875 C4.72323102 8.0246611 4.86751458 10.01271872 5 12 C3 11 3 11 2.1484375 9.00390625 C1.89320312 8.19824219 1.63796875 7.39257812 1.375 6.5625 C1.11460938 5.75941406 0.85421875 4.95632813 0.5859375 4.12890625 C0 2 0 2 0 0 Z " fill="#797979" transform="translate(95,330)"/>
<path d="M0 0 C0.33 0.66 0.66 1.32 1 2 C-1.51830747 5.12270126 -2.7261549 5.94523098 -6.75 6.75 C-8.35875 6.87375 -8.35875 6.87375 -10 7 C-10 6.34 -10 5.68 -10 5 C-6.7 3.35 -3.4 1.7 0 0 Z " fill="#939393" transform="translate(374,234)"/>
<path d="M0 0 C0 0.66 0 1.32 0 2 C-3.3 2.66 -6.6 3.32 -10 4 C-10.33 3.34 -10.66 2.68 -11 2 C-7.17679443 0.57741188 -4.08718695 -0.24042276 0 0 Z " fill="#777777" transform="translate(205,16)"/>
<path d="M0 0 C0.33 0.66 0.66 1.32 1 2 C-2.96 2.66 -6.92 3.32 -11 4 C-10.67 3.01 -10.34 2.02 -10 1 C-6.76421296 -0.31828361 -3.44785988 -0.07836045 0 0 Z " fill="#7F7F7F" transform="translate(139,0)"/>
<path d="M0 0 C1.258125 0.12375 2.51625 0.2475 3.8125 0.375 C4.87404297 0.47941406 4.87404297 0.47941406 5.95703125 0.5859375 C8 1 8 1 11 3 C6.99799622 4.60080151 3.95443764 3.29279692 0 2 C0 1.34 0 0.68 0 0 Z " fill="#7A7A7A" transform="translate(327,496)"/>
<path d="M0 0 C0.33 0 0.66 0 1 0 C1.63934602 5.11476819 -0.59466453 8.67254378 -3 13 C-4.32757546 9.01727361 -3.3296542 6.9189808 -2 3 C-1.34 2.01 -0.68 1.02 0 0 Z " fill="#7D7D7D" transform="translate(371,363)"/>
<path d="M0 0 C0.75 1.6875 0.75 1.6875 1 4 C-1.13381449 7.2769294 -2.25018012 8.75006004 -6 10 C-4.6302836 6.00499382 -2.74277578 3.19990508 0 0 Z " fill="#767676" transform="translate(263,307)"/>
<path d="M0 0 C2.9375 1.25 2.9375 1.25 6 3 C6.33 4.32 6.66 5.64 7 7 C3.7 5.35 0.4 3.7 -3 2 C-2.01 1.34 -1.02 0.68 0 0 Z " fill="#9B9B9B" transform="translate(339,290)"/>
<path d="M0 0 C0 0.99 0 1.98 0 3 C-5.34883721 8 -5.34883721 8 -8 8 C-6.49776416 3.79373966 -3.71449966 2.26099979 0 0 Z " fill="#7C7C7C" transform="translate(270,268)"/>
<path d="M0 0 C-2.77842595 2.77842595 -4.78366581 3.94471208 -8.75 4.125 C-9.4925 4.08375 -10.235 4.0425 -11 4 C-4.45754717 -1.33726415 -4.45754717 -1.33726415 0 0 Z " fill="#707070" transform="translate(320,127)"/>
<path d="M0 0 C0 0.99 0 1.98 0 3 C-3.61973402 4.31626692 -6.09567131 5 -10 5 C-10 4.34 -10 3.68 -10 3 C-8.70990357 2.49596232 -7.41786211 1.99690074 -6.125 1.5 C-5.04605469 1.08234375 -5.04605469 1.08234375 -3.9453125 0.65625 C-2 0 -2 0 0 0 Z " fill="#818181" transform="translate(331,121)"/>
<path d="M0 0 C0.66 0.99 1.32 1.98 2 3 C0.38405168 5.04119788 -1.2856382 7.04072937 -3 9 C-3.66 9 -4.32 9 -5 9 C-3.7508258 5.54074837 -2.32472205 2.85306797 0 0 Z " fill="#757575" transform="translate(416,461)"/>
<path d="M0 0 C-2.52956528 3.0916909 -5.22454612 3.90931332 -9 5 C-8.00233891 2.50584728 -7.31383315 1.21259665 -5.0625 -0.3125 C-3 -1 -3 -1 0 0 Z " fill="#6C6C6C" transform="translate(357,461)"/>
<path d="M0 0 C-3.08888522 2.05925681 -3.70935927 2.2390374 -7.1875 2.125 C-9.0746875 2.063125 -9.0746875 2.063125 -11 2 C-11 1.34 -11 0.68 -11 0 C-7.18243176 -1.37432457 -3.92744671 -0.67975039 0 0 Z " fill="#7F7F7F" transform="translate(327,407)"/>
<path d="M0 0 C3.9492568 0.55105909 7.34920174 1.38935371 11 3 C9.375 4.1875 9.375 4.1875 7 5 C1.40243902 2.80487805 1.40243902 2.80487805 0 0 Z " fill="#7C7C7C" transform="translate(326,286)"/>
<path d="M0 0 C2.15973378 3.23960066 2.75921963 5.14751405 3 9 C2.01 9.99 1.02 10.98 0 12 C0 8.04 0 4.08 0 0 Z " fill="#7E7E7E" transform="translate(31,240)"/>
<path d="M0 0 C0.8353125 0.556875 0.8353125 0.556875 1.6875 1.125 C-4.7125 4.20192308 -4.7125 4.20192308 -7.75 3.8125 C-8.265625 3.585625 -8.78125 3.35875 -9.3125 3.125 C-8.6525 3.125 -7.9925 3.125 -7.3125 3.125 C-7.3125 2.465 -7.3125 1.805 -7.3125 1.125 C-2.88173077 -1.09038462 -2.88173077 -1.09038462 0 0 Z " fill="#7F7F7F" transform="translate(211.3125,209.875)"/>
<path d="M0 0 C2.37945265 4.75890529 3.10095578 7.54838765 3 13 C1.24905885 10.37358828 0.54725362 8.89308789 -0.1875 5.9375 C-0.36667969 5.24527344 -0.54585938 4.55304688 -0.73046875 3.83984375 C-1 2 -1 2 0 0 Z " fill="#7E7E7E" transform="translate(128,165)"/>
<path d="M0 0 C0.33 0.66 0.66 1.32 1 2 C-0.1875 5.5625 -0.1875 5.5625 -2 9 C-4.11328125 9.71484375 -4.11328125 9.71484375 -6 10 C-5.18957164 8.51969728 -4.37659652 7.04078858 -3.5625 5.5625 C-2.88380859 4.32693359 -2.88380859 4.32693359 -2.19140625 3.06640625 C-1 1 -1 1 0 0 Z " fill="#969696" transform="translate(67,130)"/>
<path d="M0 0 C1.051875 0.2475 2.10375 0.495 3.1875 0.75 C0.15224514 2.77350324 -1.00676202 3.07124018 -4.5 3.375 C-5.30824219 3.44976562 -6.11648437 3.52453125 -6.94921875 3.6015625 C-7.56410156 3.65054688 -8.17898437 3.69953125 -8.8125 3.75 C-5.66311307 0.60061307 -4.55934222 -0.29897326 0 0 Z " fill="#808080" transform="translate(177.8125,91.25)"/>
<path d="M0 0 C3.25666272 0.56149357 4.95623323 1.37229986 7 4 C7.36619318 5.32468541 7.70390894 6.65790501 8 8 C6.66102417 7.04956626 5.32894573 6.08940853 4 5.125 C3.2575 4.59132813 2.515 4.05765625 1.75 3.5078125 C1.1725 3.01023437 0.595 2.51265625 0 2 C0 1.34 0 0.68 0 0 Z " fill="#838383" transform="translate(388,83)"/>
<path d="M0 0 C0.33 0.99 0.66 1.98 1 3 C-0.28745036 3.38922918 -1.58019597 3.76098036 -2.875 4.125 C-3.95394531 4.43824219 -3.95394531 4.43824219 -5.0546875 4.7578125 C-5.69664062 4.83773438 -6.33859375 4.91765625 -7 5 C-7.66 4.34 -8.32 3.68 -9 3 C-6.03 2.01 -3.06 1.02 0 0 Z " fill="#7A7A7A" transform="translate(312,456)"/>
<path d="M0 0 C-1.28813342 0.83878455 -2.58063256 1.67086783 -3.875 2.5 C-4.59429687 2.9640625 -5.31359375 3.428125 -6.0546875 3.90625 C-8 5 -8 5 -10 5 C-10 4.01 -10 3.02 -10 2 C-8.71211992 1.46987262 -7.41953322 0.9511671 -6.125 0.4375 C-5.40570313 0.14746094 -4.68640625 -0.14257812 -3.9453125 -0.44140625 C-2 -1 -2 -1 0 0 Z " fill="#7D7D7D" transform="translate(370,455)"/>
<path d="M0 0 C0 0.99 0 1.98 0 3 C-2.3125 4.75 -2.3125 4.75 -5 6 C-5.99 5.67 -6.98 5.34 -8 5 C-5.47211993 2.20127563 -3.79588866 0.54226981 0 0 Z " fill="#7B7B7B" transform="translate(395,436)"/>
<path d="M0 0 C0.99 0.495 0.99 0.495 2 1 C2 1.66 2 2.32 2 3 C2.66 3 3.32 3 4 3 C4.66 4.98 5.32 6.96 6 9 C5.34 9.66 4.68 10.32 4 11 C3.32880451 9.5437455 2.66318193 8.08492133 2 6.625 C1.62875 5.81289062 1.2575 5.00078125 0.875 4.1640625 C0 2 0 2 0 0 Z " fill="#7A7A7A" transform="translate(447,162)"/>
<path d="M0 0 C0.66 0.33 1.32 0.66 2 1 C1.34 3.31 0.68 5.62 0 8 C-0.66 8 -1.32 8 -2 8 C-2.33 8.66 -2.66 9.32 -3 10 C-2.69201674 8.51988629 -2.378482 7.04092675 -2.0625 5.5625 C-1.88847656 4.73878906 -1.71445312 3.91507813 -1.53515625 3.06640625 C-1 1 -1 1 0 0 Z " fill="#7A7A7A" transform="translate(286,157)"/>
<path d="M0 0 C0.66 0.33 1.32 0.66 2 1 C0.02 3.97 -1.96 6.94 -4 10 C-5 8 -5 8 -4.0625 4.875 C-3.5365625 3.451875 -3.5365625 3.451875 -3 2 C-2.01 2 -1.02 2 0 2 C0 1.34 0 0.68 0 0 Z " fill="#848484" transform="translate(72,124)"/>
<path d="M0 0 C0 4.38968456 -2.12805101 5.76905739 -5 9 C-5.33 7.68 -5.66 6.36 -6 5 C-4.02 3.35 -2.04 1.7 0 0 Z " fill="#818181" transform="translate(80,114)"/>
<path d="M0 0 C2.92879371 0.62759865 5.36095629 1.58622659 8 3 C8 3.66 8 4.32 8 5 C7.01 5.33 6.02 5.66 5 6 C2.3125 4.1875 2.3125 4.1875 0 2 C0 1.34 0 0.68 0 0 Z " fill="#797979" transform="translate(217,98)"/>
<path d="M0 0 C0.99 0 1.98 0 3 0 C1.50902342 3.7952131 -0.75700849 5.61042731 -4 8 C-3.40353695 4.65980694 -2.31705841 2.49529367 0 0 Z " fill="#818181" transform="translate(72,89)"/>
<path d="M0 0 C-0.99 0 -1.98 0 -3 0 C-3 0.66 -3 1.32 -3 2 C-4.98 2.33 -6.96 2.66 -9 3 C-9.33 2.01 -9.66 1.02 -10 0 C-6.33694766 -0.74926071 -3.57644848 -1.2380014 0 0 Z " fill="#727272" transform="translate(291,463)"/>
<path d="M0 0 C4.21912747 0.4794463 6.79663178 1.16625119 10 4 C7.03 3.67 4.06 3.34 1 3 C0.67 2.01 0.34 1.02 0 0 Z " fill="#727272" transform="translate(45,420)"/>
<path d="M0 0 C3.82946843 1.45255699 5.12050295 3.42895561 7 7 C6.01 7.33 5.02 7.66 4 8 C0 2.25 0 2.25 0 0 Z " fill="#818181" transform="translate(56,389)"/>
<path d="M0 0 C3.93846154 3.32307692 3.93846154 3.32307692 4.25 6.75 C4.1675 7.4925 4.085 8.235 4 9 C3.67 8.34 3.34 7.68 3 7 C2.34 7 1.68 7 1 7 C0.34 5.02 -0.32 3.04 -1 1 C-0.67 0.67 -0.34 0.34 0 0 Z " fill="#868686" transform="translate(50,378)"/>
<path d="M0 0 C3 1 3 1 4.6875 4.0625 C5.120625 5.031875 5.55375 6.00125 6 7 C5.34 7.66 4.68 8.32 4 9 C0 2.25 0 2.25 0 0 Z " fill="#767676" transform="translate(40,364)"/>
<path d="M0 0 C0.66 0 1.32 0 2 0 C2.125 3.375 2.125 3.375 2 7 C1.34 7.66 0.68 8.32 0 9 C-0.33 8.67 -0.66 8.34 -1 8 C-0.82364548 5.30917128 -0.38164079 2.67148554 0 0 Z " fill="#818181" transform="translate(372,353)"/>
<path d="M0 0 C0.33 0.99 0.66 1.98 1 3 C-0.75 5.6875 -0.75 5.6875 -3 8 C-3.99 8 -4.98 8 -6 8 C-4.55746343 4.63408134 -2.66735273 2.48952921 0 0 Z " fill="#737373" transform="translate(231,229)"/>
<path d="M0 0 C0.99 0 1.98 0 3 0 C3.66 2.64 4.32 5.28 5 8 C4.01 8.33 3.02 8.66 2 9 C1.34 6.03 0.68 3.06 0 0 Z " fill="#7D7D7D" transform="translate(458,194)"/>
<path d="M0 0 C3.7952131 1.49097658 5.61042731 3.75700849 8 7 C7.67 7.66 7.34 8.32 7 9 C4.03595495 6.19195732 1.55500981 3.81684226 0 0 Z " fill="#757575" transform="translate(386,138)"/>
<path d="M0 0 C0.99 0.33 1.98 0.66 3 1 C4.25 7.5 4.25 7.5 2 12 C1.34 8.04 0.68 4.08 0 0 Z " fill="#7C7C7C" transform="translate(496,130)"/>
<path d="M0 0 C0.66 0 1.32 0 2 0 C2 0.99 2 1.98 2 3 C2.9590625 3.3403125 2.9590625 3.3403125 3.9375 3.6875 C6 5 6 5 6.75 7.625 C6.8325 8.40875 6.915 9.1925 7 10 C3.60582235 6.87378374 1.3937282 4.43458973 0 0 Z " fill="#9D9D9D" transform="translate(430,98)"/>
<path d="M0 0 C4.95 0.99 4.95 0.99 10 2 C9.67 2.66 9.34 3.32 9 4 C2.25 3.125 2.25 3.125 0 2 C0 1.34 0 0.68 0 0 Z " fill="#7D7D7D" transform="translate(402,63)"/>
<path d="M0 0 C0 0.99 0 1.98 0 3 C-3 5.1875 -3 5.1875 -6 7 C-6.66 6.34 -7.32 5.68 -8 5 C-2.25 0 -2.25 0 0 0 Z " fill="#6B6B6B" transform="translate(107,59)"/>
<path d="M0 0 C1.65 0 3.3 0 5 0 C2.63404067 2.61500768 0.13950774 4.38999603 -3 6 C-3.66 5.67 -4.32 5.34 -5 5 C-3.625 3.5 -3.625 3.5 -2 2 C-1.34 2 -0.68 2 0 2 C0 1.34 0 0.68 0 0 Z " fill="#999999" transform="translate(124,46)"/>
<path d="M0 0 C-1.5 1.125 -1.5 1.125 -4 2 C-6.7773082 1.57598348 -9.29639783 0.81108065 -12 0 C-7.89962722 -3.07527959 -4.53236941 -1.35971082 0 0 Z " fill="#828282" transform="translate(301,488)"/>
<path d="M0 0 C-1.97420135 2.52259061 -2.96745642 2.9929808 -6.1875 3.6875 C-7.5796875 3.8421875 -7.5796875 3.8421875 -9 4 C-6.77642026 0.66463039 -4.04815944 -2.02407972 0 0 Z " fill="#7C7C7C" transform="translate(341,447)"/>
<path d="M0 0 C-2.39509338 2.89932357 -4.31245243 3.50168276 -8 4 C-7 1 -7 1 -5.125 -0.25 C-3 -1 -3 -1 0 0 Z " fill="#6D6D6D" transform="translate(348,444)"/>
<path d="M0 0 C3.16717283 1.58358642 4.73268318 2.45263699 6.3125 5.6875 C6.539375 6.450625 6.76625 7.21375 7 8 C4.36 6.02 1.72 4.04 -1 2 C-0.67 1.34 -0.34 0.68 0 0 Z " fill="#848484" transform="translate(27,408)"/>
<path d="M0 0 C1.98 0.99 3.96 1.98 6 3 C6 4.32 6 5.64 6 7 C2.63279613 5.60667426 1.0140476 4.0210714 -1 1 C-0.67 0.67 -0.34 0.34 0 0 Z " fill="#828282" transform="translate(93,399)"/>
<path d="M0 0 C3.02948198 3.02948198 3.79409939 3.88198782 4 8 C3.01 8.99 2.02 9.98 1 11 C0.67 7.37 0.34 3.74 0 0 Z " fill="#7C7C7C" transform="translate(462,210)"/>
<path d="M0 0 C-1.28813342 0.83878455 -2.58063256 1.67086783 -3.875 2.5 C-4.59429687 2.9640625 -5.31359375 3.428125 -6.0546875 3.90625 C-8 5 -8 5 -10 5 C-9.375 3.125 -9.375 3.125 -8 1 C-2.66666667 -1.33333333 -2.66666667 -1.33333333 0 0 Z " fill="#7D7D7D" transform="translate(143,62)"/>
<path d="M0 0 C0.66 0.33 1.32 0.66 2 1 C1.40138258 3.35171131 0.73075648 5.6859378 0 8 C-0.99 8.495 -0.99 8.495 -2 9 C-1.125 2.25 -1.125 2.25 0 0 Z " fill="#7B7B7B" transform="translate(433,409)"/>
<path d="M0 0 C0.625 1.875 0.625 1.875 1 4 C0.34 4.66 -0.32 5.32 -1 6 C-1.33 5.34 -1.66 4.68 -2 4 C-1.0625 1.875 -1.0625 1.875 0 0 Z M3 0 C3.99 0.99 4.98 1.98 6 3 C5.67 3.66 5.34 4.32 5 5 C4.01 4.34 3.02 3.68 2 3 C2.33 2.01 2.66 1.02 3 0 Z " fill="#979797" transform="translate(432,397)"/>
<path d="M0 0 C2.97 1.98 2.97 1.98 6 4 C5.67 5.32 5.34 6.64 5 8 C4.34 6.68 3.68 5.36 3 4 C2.34 4 1.68 4 1 4 C0.67 2.68 0.34 1.36 0 0 Z " fill="#757575" transform="translate(260,381)"/>
<path d="M0 0 C4.75 0.75 4.75 0.75 7 3 C6.67 3.99 6.34 4.98 6 6 C5.34 5.67 4.68 5.34 4 5 C4 4.34 4 3.68 4 3 C2.68 2.34 1.36 1.68 0 1 C0 0.67 0 0.34 0 0 Z " fill="#7B7B7B" transform="translate(146,199)"/>
<path d="M0 0 C1.9375 0.75 1.9375 0.75 4 2 C4.875 4 4.875 4 5 6 C4.34 6.66 3.68 7.32 3 8 C0 3.375 0 3.375 0 0 Z " fill="#737373" transform="translate(439,145)"/>
<path d="M0 0 C3.68754757 0.49831724 5.60490662 1.10067643 8 4 C5 5 5 5 2.3125 3.6875 C1.549375 3.130625 0.78625 2.57375 0 2 C0 1.34 0 0.68 0 0 Z " fill="#7E7E7E" transform="translate(370,127)"/>
<path d="M0 0 C1.70884005 1.62339805 3.37446717 3.29319053 5 5 C5 5.66 5 6.32 5 7 C2.37812506 5.95125002 1.20628639 5.35068687 -0.25 2.875 C-0.4975 2.25625 -0.745 1.6375 -1 1 C-0.67 0.67 -0.34 0.34 0 0 Z " fill="#737373" transform="translate(443,114)"/>
<path d="M0 0 C0 0.66 0 1.32 0 2 C0.66 2.33 1.32 2.66 2 3 C-1.3 2.67 -4.6 2.34 -8 2 C-4.77208445 -0.1519437 -3.71599191 -0.20086443 0 0 Z " fill="#7C7C7C" transform="translate(285,34)"/>
<path d="M0 0 C2.3431213 0.25561323 4.67843403 0.59270772 7 1 C7.33 1.66 7.66 2.32 8 3 C5.6875 3.625 5.6875 3.625 3 4 C2.01 3.34 1.02 2.68 0 2 C0 1.34 0 0.68 0 0 Z " fill="#747474" transform="translate(318,493)"/>
<path d="M0 0 C-0.99 1.485 -0.99 1.485 -2 3 C-5.625 3.1875 -5.625 3.1875 -9 3 C-9 2.34 -9 1.68 -9 1 C-5.92677456 0.08941469 -3.19902639 -0.08886184 0 0 Z " fill="#797979" transform="translate(302,460)"/>
<path d="M0 0 C0.66 0.33 1.32 0.66 2 1 C1.67 3.31 1.34 5.62 1 8 C0.01 7.67 -0.98 7.34 -2 7 C-1.34 4.69 -0.68 2.38 0 0 Z " fill="#7C7C7C" transform="translate(435,400)"/>
<path d="M0 0 C3 1 3 1 4.75 3.4375 C5.36875 4.7059375 5.36875 4.7059375 6 6 C5.67 6.66 5.34 7.32 5 8 C2.5 5.6875 2.5 5.6875 0 3 C0 2.01 0 1.02 0 0 Z " fill="#848484" transform="translate(266,387)"/>
<path d="M0 0 C0.66 0 1.32 0 2 0 C4.4294516 3.6441774 4.16179575 5.71241272 4 10 C1.81024227 6.71536341 1.00193437 3.79303725 0 0 Z " fill="#9C9C9C" transform="translate(1,370)"/>
<path d="M0 0 C2.0625 1.75 2.0625 1.75 4 4 C3.75 6.25 3.75 6.25 3 8 C0.37613513 4.93882432 0 4.26826873 0 0 Z " fill="#838383" transform="translate(45,371)"/>
<path d="M0 0 C0.33 0.66 0.66 1.32 1 2 C-4.41538462 5.07692308 -4.41538462 5.07692308 -7.375 4.6875 C-7.91125 4.460625 -8.4475 4.23375 -9 4 C-6.06171403 1.49701566 -3.82097239 0.53069061 0 0 Z " fill="#797979" transform="translate(187,370)"/>
<path d="M0 0 C1 3 1 3 0.3125 5.625 C-0.3371875 6.800625 -0.3371875 6.800625 -1 8 C-2.32 8.33 -3.64 8.66 -5 9 C-3.35 6.03 -1.7 3.06 0 0 Z " fill="#989898" transform="translate(210,344)"/>
<path d="M0 0 C0.66 0.33 1.32 0.66 2 1 C2.1875 3.3125 2.1875 3.3125 2 6 C1.01 6.99 0.02 7.98 -1 9 C-0.67 6.03 -0.34 3.06 0 0 Z " fill="#7E7E7E" transform="translate(95,302)"/>
<path d="M0 0 C2.31 1.98 4.62 3.96 7 6 C6.01 6.33 5.02 6.66 4 7 C1.23609263 4.59660228 0.95934081 3.83736322 0 0 Z " fill="#7E7E7E" transform="translate(198,270)"/>
<path d="M0 0 C0.99 0 1.98 0 3 0 C3 1.98 3 3.96 3 6 C2.01 6 1.02 6 0 6 C0 4.02 0 2.04 0 0 Z " fill="#4A4A4A" transform="translate(465,237)"/>
<path d="M0 0 C1.32 0.33 2.64 0.66 4 1 C4.33 2.32 4.66 3.64 5 5 C3.68 5 2.36 5 1 5 C0.67 3.35 0.34 1.7 0 0 Z " fill="#626262" transform="translate(481,215)"/>
<path d="M0 0 C0.66 0 1.32 0 2 0 C1.75 2.375 1.75 2.375 1 5 C-1.0625 6.3125 -1.0625 6.3125 -3 7 C-1.125 2.25 -1.125 2.25 0 0 Z " fill="#777777" transform="translate(290,149)"/>
<path d="M0 0 C3.465 1.485 3.465 1.485 7 3 C7 3.33 7 3.66 7 4 C4.36 3.67 1.72 3.34 -1 3 C-0.67 2.01 -0.34 1.02 0 0 Z " fill="#818181" transform="translate(363,123)"/>
<path d="M0 0 C0.99 0.495 0.99 0.495 2 1 C2 1.66 2 2.32 2 3 C2.66 3 3.32 3 4 3 C4.66 4.65 5.32 6.3 6 8 C4.68 7.67 3.36 7.34 2 7 C1.34 4.69 0.68 2.38 0 0 Z " fill="#7B7B7B" transform="translate(235,112)"/>
<path d="M0 0 C3.36720387 1.39332574 4.9859524 2.9789286 7 6 C4.03824877 5.38722388 2.61941217 4.74627478 0 3 C0 2.01 0 1.02 0 0 Z " fill="#747474" transform="translate(403,70)"/>
<path d="M0 0 C1.98 0 3.96 0 6 0 C6 0.66 6 1.32 6 2 C1.05 3.485 1.05 3.485 -4 5 C-3.67 4.34 -3.34 3.68 -3 3 C-2.34 3 -1.68 3 -1 3 C-0.67 2.01 -0.34 1.02 0 0 Z " fill="#7E7E7E" transform="translate(155,52)"/>
<path d="M0 0 C3.375 -0.125 3.375 -0.125 7 0 C7.66 0.66 8.32 1.32 9 2 C6.75 2.6875 6.75 2.6875 4 3 C1.6875 1.5625 1.6875 1.5625 0 0 Z " fill="#808080" transform="translate(308,41)"/>
<path d="M0 0 C-1.625 1.5625 -1.625 1.5625 -4 3 C-7.25 2.6875 -7.25 2.6875 -10 2 C-3.24137931 -1.62068966 -3.24137931 -1.62068966 0 0 Z " fill="#959595" transform="translate(197,39)"/>
<path d="M0 0 C2.97 0.33 5.94 0.66 9 1 C9 1.66 9 2.32 9 3 C6.03 2.67 3.06 2.34 0 2 C0 1.34 0 0.68 0 0 Z " fill="#7C7C7C" transform="translate(188,7)"/>
<path d="M0 0 C0 0.66 0 1.32 0 2 C-1.96147874 3.38938077 -3.96166576 4.7260411 -6 6 C-6.66 5.67 -7.32 5.34 -8 5 C-3.375 0 -3.375 0 0 0 Z " fill="#7B7B7B" transform="translate(379,448)"/>
<path d="M0 0 C1.32 1.32 2.64 2.64 4 4 C3.67 4.99 3.34 5.98 3 7 C1.68 5.68 0.36 4.36 -1 3 C-0.67 2.01 -0.34 1.02 0 0 Z " fill="#6F6F6F" transform="translate(73,408)"/>
<path d="M0 0 C2.89932357 2.39509338 3.50168276 4.31245243 4 8 C3.01 7.67 2.02 7.34 1 7 C0.67 4.69 0.34 2.38 0 0 Z " fill="#7F7F7F" transform="translate(7,381)"/>
<path d="M0 0 C0.33 1.32 0.66 2.64 1 4 C-1.475 5.485 -1.475 5.485 -4 7 C-2.92598892 4.08482708 -2.22189824 2.22189824 0 0 Z " fill="#808080" transform="translate(424,377)"/>
<path d="M0 0 C0.66 0.33 1.32 0.66 2 1 C-0.475 4.465 -0.475 4.465 -3 8 C-4.03348696 4.89953913 -4.17755913 3.94389782 -3 1 C-2.01 0.67 -1.02 0.34 0 0 Z " fill="#999999" transform="translate(429,372)"/>
<path d="M0 0 C2.31 0 4.62 0 7 0 C7.33 0.99 7.66 1.98 8 3 C5.6568787 2.74438677 3.32156597 2.40729228 1 2 C0.67 1.34 0.34 0.68 0 0 Z " fill="#7E7E7E" transform="translate(132,374)"/>
<path d="M0 0 C0.66 0 1.32 0 2 0 C2.33 2.31 2.66 4.62 3 7 C2.01 7.495 2.01 7.495 1 8 C-0.35439668 5.29120665 -0.06501451 2.99066732 0 0 Z " fill="#7A7A7A" transform="translate(15,295)"/>
<path d="M0 0 C1.98 0 3.96 0 6 0 C6.33 0.99 6.66 1.98 7 3 C5.02 3 3.04 3 1 3 C0.67 2.01 0.34 1.02 0 0 Z " fill="#7C7C7C" transform="translate(246,277)"/>
<path d="M0 0 C2.64 0.99 5.28 1.98 8 3 C6.02 3.99 6.02 3.99 4 5 C2 3.625 2 3.625 0 2 C0 1.34 0 0.68 0 0 Z " fill="#727272" transform="translate(174,256)"/>
<path d="M0 0 C0 2.31 0 4.62 0 7 C-0.33 6.34 -0.66 5.68 -1 5 C-1.99 4.67 -2.98 4.34 -4 4 C-4 3.01 -4 2.02 -4 1 C-1 0 -1 0 0 0 Z " fill="#7C7C7C" transform="translate(486,211)"/>
<path d="M0 0 C1.32 0.99 2.64 1.98 4 3 C3.67 4.32 3.34 5.64 3 7 C1.68 5.35 0.36 3.7 -1 2 C-0.67 1.34 -0.34 0.68 0 0 Z " fill="#727272" transform="translate(139,189)"/>
<path d="M0 0 C0.66 0.33 1.32 0.66 2 1 C2.73075648 3.3140622 3.40138258 5.64828869 4 8 C1 7 1 7 -0.25 4.5625 C-1 2 -1 2 0 0 Z " fill="#7F7F7F" transform="translate(465,153)"/>
<path d="M0 0 C0.33 0.99 0.66 1.98 1 3 C-0.4375 5.1875 -0.4375 5.1875 -2 7 C-2.99 6.67 -3.98 6.34 -5 6 C-3.35 4.02 -1.7 2.04 0 0 Z " fill="#777777" transform="translate(143,109)"/>
<path d="M0 0 C2.52588702 2.36292656 3.88820837 3.66462511 5 7 C3.68 6.67 2.36 6.34 1 6 C0.67 4.02 0.34 2.04 0 0 Z " fill="#848484" transform="translate(437,105)"/>
<path d="M0 0 C2.97 0.33 5.94 0.66 9 1 C6 3 6 3 2 3 C2 2.34 2 1.68 2 1 C1.34 0.67 0.68 0.34 0 0 Z " fill="#767676" transform="translate(196,91)"/>
<path d="M0 0 C1.98 0.66 3.96 1.32 6 2 C6 2.99 6 3.98 6 5 C3.08482708 3.92598892 1.22189824 3.22189824 -1 1 C-0.67 0.67 -0.34 0.34 0 0 Z " fill="#808080" transform="translate(456,79)"/>
</svg>
