<?xml version="1.0" encoding="UTF-8"?>
<svg version="1.1" xmlns="http://www.w3.org/2000/svg" width="500" height="500">
<path d="M0 0 C5.99761634 0.00754378 11.99516664 0.00481869 17.99278057 -0.00360441 C83.87905299 -0.09363865 83.87905299 -0.09363865 106.33848369 1.14776278 C107.04269451 1.18659327 107.74690532 1.22542376 108.47245586 1.26543093 C165.87894816 4.59454085 165.87894816 4.59454085 182.71348369 23.25713778 C215.64400581 66.7993666 203.2283156 171.15706529 196.37705791 221.74102449 C195.67272796 226.2915579 194.75376741 230.77025748 193.71348369 235.25713778 C193.49949932 236.25487215 193.28551494 237.25260653 193.06504619 238.28057528 C190.24346253 250.13122663 183.96518393 261.07001509 173.95567119 268.22979403 C151.19428196 282.22537409 122.38343426 281.38837897 96.51035869 282.36651278 C95.43278049 282.40838465 94.35520229 282.45025652 93.2449702 282.49339724 C67.99041962 283.45384165 42.74225911 283.56417771 17.47227275 283.51787996 C11.22746025 283.50651173 4.98281884 283.51327052 -1.26198781 283.52475405 C-27.22870748 283.56521973 -53.16312912 283.29422309 -79.11464131 282.36651278 C-80.23650586 282.32768229 -81.3583704 282.2888518 -82.51423085 282.24884462 C-150.30309611 279.84092641 -150.30309611 279.84092641 -168.28651631 262.25713778 C-192.9685147 232.81583028 -187.63381798 182.44338018 -187.5472585 146.32720613 C-187.5358405 141.52390029 -187.54265467 136.72081556 -187.55414307 131.91751719 C-187.66328176 78.09779418 -187.66328176 78.09779418 -182.28651631 53.25713778 C-182.0414333 52.12090975 -182.0414333 52.12090975 -181.79139912 50.96172762 C-178.85933026 37.92458965 -174.46908247 26.45159307 -164.28651631 17.25713778 C-163.62651631 17.25713778 -162.96651631 17.25713778 -162.28651631 17.25713778 C-162.28651631 16.59713778 -162.28651631 15.93713778 -162.28651631 15.25713778 C-144.51465292 5.67335804 -126.11286275 3.8182404 -106.28651631 2.25713778 C-105.19099446 2.17001024 -104.09547261 2.08288271 -102.96675313 1.99311495 C-68.71424391 -0.57067866 -34.32367473 -0.04821733 0 0 Z M-34.28651631 83.25713778 C-35.14986652 86.2452743 -35.4120817 88.90180628 -35.41349995 92.00788546 C-35.41631978 92.95984804 -35.4191396 93.91181063 -35.42204487 94.89262056 C-35.42002064 95.93015978 -35.41799641 96.96769899 -35.41591084 98.03667879 C-35.41766316 99.13459749 -35.41941548 100.23251619 -35.4212209 101.36370516 C-35.42562552 104.99616748 -35.42270648 108.6285812 -35.41932881 112.26104403 C-35.4200022 114.78162823 -35.42097252 117.30221237 -35.42222798 119.82279634 C-35.42370303 125.10617421 -35.42165161 130.38953462 -35.4168874 135.67290926 C-35.41144259 141.78161681 -35.41321033 147.890291 -35.41871381 153.99899775 C-35.4237971 159.87656578 -35.42326105 165.75412344 -35.42033207 171.63169336 C-35.4196637 174.13281875 -35.4204881 176.63394498 -35.42281163 179.13506937 C-35.42534285 182.62573318 -35.42149097 186.11633232 -35.41591084 189.60699129 C-35.41793507 190.64655474 -35.4199593 191.68611818 -35.42204487 192.75718355 C-35.41922505 193.70632631 -35.41640522 194.65546907 -35.41349995 195.63337374 C-35.41312293 196.45871394 -35.4127459 197.28405415 -35.41235745 198.13440466 C-35.36740067 200.44703752 -35.36740067 200.44703752 -34.28651631 203.25713778 C-30.55481602 201.86587816 -27.23304441 200.15949337 -23.80995381 198.12823153 C-22.75646748 197.50545321 -21.70298115 196.88267488 -20.617571 196.24102449 C-19.51832295 195.58634188 -18.4190749 194.93165926 -17.28651631 194.25713778 C-16.20531514 193.61663485 -15.12411397 192.97613192 -14.01014912 192.31621981 C-10.64223429 190.32021599 -7.27684587 188.31999676 -3.91151631 186.31963778 C21.03658909 171.50876966 21.03658909 171.50876966 27.71348369 168.25713778 C27.71348369 167.59713778 27.71348369 166.93713778 27.71348369 166.25713778 C28.25102275 166.16174715 28.78856182 166.06635653 29.34238994 165.96807528 C32.42574227 165.04357754 34.88966896 163.53265881 37.65098369 161.88213778 C38.67063213 161.2762784 39.69028057 160.67041903 40.74082744 160.04620028 C42.52630937 158.97162639 44.30960366 157.89338694 46.08848369 156.80791903 C48.22896496 155.54337875 50.38135708 154.3302294 52.56113994 153.13604403 C53.59271221 152.56853426 53.59271221 152.56853426 54.64512432 151.98955965 C56.06705839 151.20886441 57.49155764 150.43282342 58.91856182 149.66143465 C62.71761575 147.56036163 65.81201182 145.56556934 68.71348369 142.25713778 C60.54175322 137.57116109 52.35447602 132.91496027 44.13340557 128.31597567 C43.49854228 127.96011385 42.863679 127.60425203 42.20957744 127.23760653 C41.31021465 126.73366365 41.31021465 126.73366365 40.39268291 126.21954012 C38.8666777 125.34493812 37.3682681 124.42262301 35.87363994 123.49541903 C33.83927863 122.09136406 33.83927863 122.09136406 31.71348369 122.25713778 C31.71348369 121.59713778 31.71348369 120.93713778 31.71348369 120.25713778 C30.73121807 119.72926668 30.73121807 119.72926668 29.72910869 119.19073153 C23.46904475 115.80428451 17.32687277 112.27475061 11.24473369 108.57745028 C8.74598347 107.02590153 8.74598347 107.02590153 5.71348369 107.25713778 C5.71348369 106.59713778 5.71348369 105.93713778 5.71348369 105.25713778 C4.72795513 104.73361727 4.72795513 104.73361727 3.72251689 104.19952059 C-4.4286444 99.81833424 -12.27799468 95.02378221 -20.12050068 90.11651278 C-21.08923115 89.51838778 -22.05796162 88.92026278 -23.05604756 88.30401278 C-23.91818867 87.76615145 -24.78032979 87.22829012 -25.66859639 86.67412996 C-28.47211215 85.15668098 -31.2405039 84.17964916 -34.28651631 83.25713778 Z " fill="#8B8B8B" transform="translate(244.28651630878448,103.74286222457886)"/>
<path d="M0 0 C0.33 0 0.66 0 1 0 C1.24130988 22.62950403 1.24130988 22.62950403 0 29 C-0.66 29.33 -1.32 29.66 -2 30 C-2.28734152 19.7834125 -1.46764474 10.09005762 0 0 Z " fill="#A2A0A1" transform="translate(442,280)"/>
<path d="M0 0 C-0.35698503 2.64168921 -0.752308 4.60890736 -2.1875 6.875 C-4 8 -4 8 -7.1875 7.6875 C-8.115625 7.460625 -9.04375 7.23375 -10 7 C-9.34 6.01 -8.68 5.02 -8 4 C-7.34 4 -6.68 4 -6 4 C-6 3.34 -6 2.68 -6 2 C-2.25 0 -2.25 0 0 0 Z " fill="#9B9899" transform="translate(88,117)"/>
<path d="M0 0 C0.66 0.99 1.32 1.98 2 3 C1.01 3.33 0.02 3.66 -1 4 C-1.103125 4.7425 -1.20625 5.485 -1.3125 6.25 C-2.04253504 9.17014018 -3.06789398 10.73187554 -5 13 C-5 8.85323868 -4.5223055 7.68791935 -2.5 4.25 C-2.0359375 3.45078125 -1.571875 2.6515625 -1.09375 1.828125 C-0.7328125 1.22484375 -0.371875 0.6215625 0 0 Z " fill="#9C999A" transform="translate(73,129)"/>
<path d="M0 0 C4.95 0 9.9 0 15 0 C13.02 0.99 13.02 0.99 11 2 C10.01 2.66 9.02 3.32 8 4 C5.28368454 3.09456151 2.65228812 2.07525194 0 1 C0 0.67 0 0.34 0 0 Z " fill="#807E7F" transform="translate(138,107)"/>
<path d="M0 0 C0 0.99 0 1.98 0 3 C-2.24578708 5.24578708 -4.069792 5.85650419 -7 7 C-7.99 7.66 -8.98 8.32 -10 9 C-10.66 8.34 -11.32 7.68 -12 7 C-8.04 4.69 -4.08 2.38 0 0 Z " fill="#A3A2A3" transform="translate(307,250)"/>
<path d="M0 0 C1.98 0 3.96 0 6 0 C6 3 6 3 5 6 C3.31237149 4.3545622 1.6459651 2.68711423 0 1 C0 0.67 0 0.34 0 0 Z " fill="#A49FA1" transform="translate(74,362)"/>
<path d="M0 0 C1.32 1.32 2.64 2.64 4 4 C1.525 5.485 1.525 5.485 -1 7 C-1.33 6.01 -1.66 5.02 -2 4 C-1.34 4 -0.68 4 0 4 C0 2.68 0 1.36 0 0 Z " fill="#9C9A9B" transform="translate(420,121)"/>
<path d="M0 0 C0.66 0.33 1.32 0.66 2 1 C0.35 2.65 -1.3 4.3 -3 6 C-3.99 5.34 -4.98 4.68 -6 4 C-4.02 2.68 -2.04 1.36 0 0 Z " fill="#A29B9C" transform="translate(220,301)"/>
<path d="M0 0 C2.475 0.495 2.475 0.495 5 1 C5.33 2.32 5.66 3.64 6 5 C4.02 4.34 2.04 3.68 0 3 C0 2.01 0 1.02 0 0 Z " fill="#9F9B9C" transform="translate(88,372)"/>
</svg>
